<svg width="92" height="92" viewBox="0 0 92 92" fill="none" xmlns="http://www.w3.org/2000/svg">
<g clip-path="url(#clip0_76_352)">
<path d="M83.3211 62.8667C82.0337 59.0714 79.591 55.7739 76.3353 53.4367C73.0796 51.0994 69.1742 49.8394 65.1664 49.8334H49.8331V45.6781C55.5195 44.7169 60.6372 41.6546 64.1722 37.098C67.7072 32.5415 69.4015 26.8232 68.9192 21.0764C68.4369 15.3295 65.8133 9.97359 61.5684 6.06993C57.3234 2.16626 51.7668 -0.000244141 45.9998 -0.000244141C40.2328 -0.000244141 34.6762 2.16626 30.4312 6.06993C26.1862 9.97359 23.5626 15.3295 23.0803 21.0764C22.5981 26.8232 24.2923 32.5415 27.8273 37.098C31.3623 41.6546 36.4801 44.7169 42.1664 45.6781V49.8334H26.8331C22.8253 49.8394 18.9199 51.0994 15.6642 53.4367C12.4085 55.7739 9.96582 59.0714 8.67844 62.8667C5.38979 64.4533 2.77526 67.1613 1.3052 70.5036C-0.16486 73.846 -0.393941 77.6032 0.659171 81.0994C1.71228 84.5956 3.97846 87.6012 7.04999 89.5755C10.1215 91.5498 13.7968 92.3632 17.4146 91.8694C21.0324 91.3756 24.3552 89.607 26.7853 86.8817C29.2154 84.1565 30.5931 80.6535 30.6708 77.003C30.7484 73.3525 29.5208 69.7941 27.2088 66.968C24.8968 64.1419 21.6521 62.2336 18.0586 61.5864C19.1363 60.3085 20.4796 59.2808 21.995 58.5751C23.5104 57.8694 25.1614 57.5025 26.8331 57.5001H42.1664V61.8202C38.5529 62.7532 35.4037 64.9721 33.3091 68.0609C31.2146 71.1497 30.3184 74.8964 30.7887 78.5987C31.2589 82.301 33.0633 85.7047 35.8635 88.1718C38.6638 90.6389 42.2677 92 45.9998 92C49.7318 92 53.3357 90.6389 56.136 88.1718C58.9363 85.7047 60.7406 82.301 61.2109 78.5987C61.6811 74.8964 60.785 71.1497 58.6904 68.0609C56.5958 64.9721 53.4466 62.7532 49.8331 61.8202V57.5001H65.1664C66.8372 57.5011 68.4877 57.8662 70.003 58.5699C71.5184 59.2736 72.8622 60.2991 73.9409 61.5749C70.3474 62.2221 67.1028 64.1304 64.7908 66.9565C62.4787 69.7826 61.2511 73.341 61.3288 76.9915C61.4064 80.642 62.7842 84.145 65.2143 86.8702C67.6443 89.5955 70.9672 91.3641 74.585 91.8579C78.2028 92.3517 81.878 91.5383 84.9496 89.564C88.0211 87.5897 90.2873 84.584 91.3404 81.0879C92.3935 77.5917 92.1644 73.8345 90.6943 70.4921C89.2243 67.1498 86.6097 64.4418 83.3211 62.8552V62.8667ZM30.6664 23.0001C30.6664 19.9674 31.5657 17.0029 33.2506 14.4813C34.9354 11.9598 37.3302 9.99445 40.132 8.83391C42.9338 7.67337 46.0168 7.36972 48.9912 7.96136C51.9655 8.553 54.6977 10.0134 56.8421 12.1578C58.9865 14.3022 60.4468 17.0343 61.0385 20.0087C61.6301 22.9831 61.3265 26.0661 60.1659 28.8679C59.0054 31.6697 57.0401 34.0644 54.5185 35.7493C51.997 37.4341 49.0324 38.3334 45.9998 38.3334C41.9331 38.3334 38.033 36.7179 35.1575 33.8424C32.2819 30.9668 30.6664 27.0667 30.6664 23.0001ZM22.9998 76.6667C22.9998 78.1831 22.5501 79.6653 21.7077 80.9261C20.8653 82.1869 19.6679 83.1695 18.267 83.7498C16.8661 84.3301 15.3246 84.4819 13.8374 84.1861C12.3502 83.8903 10.9842 83.1601 9.91195 82.0879C8.83975 81.0157 8.10957 79.6496 7.81375 78.1624C7.51793 76.6752 7.66976 75.1337 8.25003 73.7328C8.8303 72.3319 9.81295 71.1346 11.0737 70.2921C12.3345 69.4497 13.8168 69.0001 15.3331 69.0001C17.3664 69.0001 19.3165 69.8078 20.7543 71.2456C22.192 72.6834 22.9998 74.6334 22.9998 76.6667ZM53.6664 76.6667C53.6664 78.1831 53.2168 79.6653 52.3744 80.9261C51.5319 82.1869 50.3346 83.1695 48.9337 83.7498C47.5328 84.3301 45.9913 84.4819 44.5041 84.1861C43.0169 83.8903 41.6508 83.1601 40.5786 82.0879C39.5064 81.0157 38.7762 79.6496 38.4804 78.1624C38.1846 76.6752 38.3364 75.1337 38.9167 73.7328C39.497 72.3319 40.4796 71.1346 41.7404 70.2921C43.0012 69.4497 44.4834 69.0001 45.9998 69.0001C48.0331 69.0001 49.9831 69.8078 51.4209 71.2456C52.8587 72.6834 53.6664 74.6334 53.6664 76.6667ZM76.6664 84.3334C75.1501 84.3334 73.6678 83.8838 72.4071 83.0413C71.1463 82.1989 70.1636 81.0015 69.5834 79.6006C69.0031 78.1997 68.8513 76.6582 69.1471 75.171C69.4429 73.6839 70.1731 72.3178 71.2453 71.2456C72.3175 70.1734 73.6836 69.4432 75.1707 69.1474C76.6579 68.8516 78.1994 69.0034 79.6003 69.5837C81.0012 70.1639 82.1986 71.1466 83.041 72.4074C83.8835 73.6681 84.3331 75.1504 84.3331 76.6667C84.3331 78.7001 83.5254 80.6501 82.0876 82.0879C80.6498 83.5257 78.6998 84.3334 76.6664 84.3334Z" fill="url(#paint0_linear_76_352)"/>
</g>
<defs>
<linearGradient id="paint0_linear_76_352" x1="-20.4733" y1="-21.2058" x2="99.5723" y2="100.962" gradientUnits="userSpaceOnUse">
<stop stop-color="#0C3C62"/>
<stop offset="1" stop-color="#00909A"/>
</linearGradient>
<clipPath id="clip0_76_352">
<rect width="92" height="92" fill="white"/>
</clipPath>
</defs>
</svg>
