<svg width="979" height="473" viewBox="0 0 979 473" fill="none" xmlns="http://www.w3.org/2000/svg">
<g clip-path="url(#clip0_240_170)">
<path d="M821.412 402.16C822.209 378.358 811.318 354.708 790.131 346.598C795.179 370.923 790.894 398.288 778.273 422.311C773.357 431.668 766.978 441.697 768.729 451.241C769.819 457.18 774.04 461.781 779.106 464.699C784.172 467.617 790.074 469.067 795.904 470.489L796.937 471.503C809.945 449.781 820.614 425.962 821.412 402.16Z" fill="#F2F2F2"/>
<path d="M789.838 347.044C800.46 361.884 805.878 380.914 804.703 400.486C804.532 404.818 803.707 409.101 802.257 413.187C800.658 417.286 798.118 420.952 794.841 423.888C791.812 426.712 788.432 429.292 786.046 432.712C784.867 434.382 784.037 436.272 783.606 438.269C783.175 440.267 783.151 442.331 783.535 444.338C784.425 449.094 787.035 453.003 789.733 456.717C792.73 460.841 795.915 465.067 796.616 470.479C796.701 471.135 797.743 470.82 797.658 470.165C796.438 460.75 788.278 455.275 785.311 446.763C783.926 442.791 783.801 438.205 786.328 434.08C788.538 430.473 792.021 427.809 795.11 424.973C798.348 422.141 800.942 418.647 802.716 414.728C804.362 410.703 805.347 406.438 805.634 402.099C806.399 392.738 805.638 383.314 803.38 374.197C800.956 364.16 796.635 354.679 790.652 346.264C790.285 345.752 789.474 346.534 789.838 347.044L789.838 347.044Z" fill="white"/>
<path d="M805.421 394.097C808.835 393.308 811.918 391.475 814.241 388.852C816.565 386.229 818.013 382.948 818.384 379.464C818.437 378.786 817.386 378.82 817.334 379.499C816.993 382.743 815.645 385.799 813.477 388.237C811.31 390.674 808.433 392.372 805.251 393.09C805.184 393.1 805.12 393.123 805.062 393.159C805.004 393.194 804.954 393.241 804.915 393.295C804.875 393.35 804.847 393.413 804.831 393.479C804.816 393.544 804.814 393.613 804.825 393.68C804.837 393.746 804.861 393.81 804.897 393.867C804.933 393.925 804.981 393.974 805.036 394.013C805.091 394.052 805.154 394.079 805.22 394.094C805.286 394.108 805.355 394.109 805.421 394.097V394.097Z" fill="white"/>
<path d="M796.539 422.634C793.91 420.81 791.698 418.449 790.047 415.708C788.396 412.968 787.345 409.908 786.962 406.731C786.874 406.076 785.832 406.391 785.919 407.045C786.325 410.35 787.426 413.531 789.15 416.379C790.874 419.227 793.183 421.677 795.923 423.568C796.447 423.925 797.06 422.989 796.539 422.634V422.634Z" fill="white"/>
<path d="M799.757 364.98C798.576 365.535 797.272 365.78 795.97 365.69C794.668 365.6 793.411 365.179 792.317 364.467C791.798 364.103 791.185 365.04 791.7 365.402C792.912 366.183 794.301 366.646 795.739 366.748C797.177 366.85 798.617 366.589 799.927 365.987C800.064 365.942 800.181 365.853 800.26 365.733C800.34 365.613 800.376 365.47 800.363 365.327C800.351 365.261 800.325 365.199 800.287 365.145C800.248 365.09 800.199 365.045 800.141 365.012C800.083 364.979 800.019 364.959 799.953 364.954C799.886 364.948 799.819 364.957 799.757 364.98V364.98Z" fill="white"/>
<path d="M715.219 387.863C715.534 388.1 715.85 388.338 716.165 388.584C720.385 391.796 724.295 395.395 727.845 399.334C728.125 399.633 728.403 399.942 728.673 400.25C737.176 409.967 743.544 421.361 747.366 433.695C748.932 438.724 750.086 443.873 750.817 449.09C751.841 456.365 752.354 464.417 755.697 470.41C756.036 471.038 756.42 471.641 756.844 472.215L795.428 472.87C795.523 472.827 795.616 472.793 795.712 472.75L797.241 472.847C797.222 472.57 797.197 472.284 797.178 472.007C797.168 471.846 797.149 471.685 797.139 471.524C797.13 471.417 797.12 471.31 797.117 471.212C797.114 471.176 797.111 471.14 797.106 471.113C797.104 471.015 797.091 470.925 797.088 470.836C796.95 469.236 796.804 467.636 796.639 466.035C796.64 466.026 796.64 466.026 796.633 466.017C795.372 453.828 793.057 441.782 788.917 430.732C788.792 430.399 788.67 430.058 788.527 429.725C786.649 424.794 784.323 420.045 781.577 415.538C780.078 413.1 778.439 410.75 776.668 408.501C772.084 402.709 766.49 397.793 760.157 393.991C747.475 386.366 731.897 383.263 716.401 387.526C716.004 387.635 715.616 387.745 715.219 387.863Z" fill="#F2F2F2"/>
<path d="M715.228 388.36C733.643 392.495 750.012 402.781 760.884 417.458C763.351 420.617 765.237 424.188 766.454 428.007C767.536 431.982 767.523 436.177 766.415 440.146C765.458 444 764.042 447.894 764.016 451.785C763.993 453.689 764.421 455.571 765.266 457.277C766.11 458.984 767.346 460.467 768.873 461.604C772.554 464.457 777.238 465.66 781.883 466.671C787.04 467.793 792.425 468.873 796.338 472.309C796.812 472.725 797.541 471.867 797.068 471.451C790.26 465.475 779.719 466.526 771.917 462.256C768.277 460.263 765.376 457.067 765.097 452.589C764.854 448.673 766.31 444.656 767.313 440.757C768.446 436.879 768.612 432.783 767.797 428.827C766.795 424.941 765.061 421.281 762.689 418.044C757.535 410.771 751.107 404.49 743.717 399.506C735.161 393.686 725.576 389.547 715.473 387.309C714.836 387.166 714.596 388.218 715.228 388.36V388.36Z" fill="white"/>
<path d="M757.631 412.464C762.813 407.222 763.889 399.381 760.177 394.149C759.811 393.634 758.904 394.296 759.27 394.812C762.748 399.714 761.712 406.948 756.868 411.849C756.358 412.364 757.124 412.977 757.631 412.464V412.464Z" fill="white"/>
<path d="M767.152 438.22C763.912 438.575 760.633 438.268 757.515 437.318C754.397 436.368 751.504 434.794 749.013 432.692C748.537 432.278 747.808 433.135 748.283 433.549C750.881 435.731 753.895 437.363 757.143 438.345C760.391 439.326 763.804 439.638 767.176 439.261C767.856 439.197 767.829 438.156 767.152 438.219L767.152 438.22Z" fill="white"/>
<path d="M734.906 395.131C734.135 396.287 733.118 397.258 731.928 397.977C730.738 398.695 729.404 399.141 728.022 399.285C727.342 399.34 727.37 400.381 728.045 400.326C729.572 400.161 731.045 399.666 732.362 398.875C733.678 398.084 734.807 397.017 735.67 395.746C735.763 395.645 735.813 395.512 735.81 395.375C735.807 395.237 735.751 395.107 735.653 395.01C735.537 394.931 735.394 394.9 735.256 394.922C735.117 394.945 734.992 395.019 734.906 395.131V395.131Z" fill="white"/>
<path d="M703.743 375.131C703.824 375.039 703.209 374.962 702.07 374.896V336.632H646.832V339.712H621.967C619.051 339.715 616.256 340.875 614.194 342.936C612.133 344.998 610.973 347.793 610.97 350.709V366.535C610.972 369.451 612.131 372.247 614.193 374.309C616.255 376.371 619.051 377.531 621.967 377.533L647.451 377.566L658.641 377.583H659.411L670.609 377.6L701.886 377.641H704.58C704.974 377.198 703.367 375.574 703.743 375.131Z" fill="#3F3D56"/>
<path d="M704.338 375.841C702.511 378.505 701.031 378.407 699.736 376.683C699.054 375.693 698.505 374.617 698.103 373.483C694.167 363.39 691.592 340.234 684.169 348.331C682.703 349.93 681.215 351.517 679.721 353.085C676.944 356.005 674.044 359.175 671.17 361.976C671.168 361.984 671.235 361.673 671.225 361.68C669.808 363.066 670.876 351.073 670.315 347.699C670.196 346.97 670.001 346.644 669.691 346.935C669.668 346.607 669.652 346.281 669.654 345.949C669.651 345.428 669.678 344.907 669.733 344.389C669.78 343.912 669.844 343.43 669.935 342.945L694.204 213.169C694.844 209.769 696.55 206.662 699.076 204.299C701.602 201.936 704.816 200.439 708.25 200.027C709.876 199.846 711.521 199.904 713.131 200.199L717.548 201.025C719.292 201.351 720.97 201.964 722.514 202.839L722.522 202.84C725.472 204.505 727.829 207.049 729.262 210.119C730.696 213.188 731.134 216.629 730.517 219.959L704.338 375.841Z" fill="#3F3D56"/>
<path d="M497.094 449.765L485.7 444.316L501.351 396.69L518.168 404.733L497.094 449.765Z" fill="#A0616A"/>
<path d="M573.482 442.087C572.653 442.606 571.824 443.116 570.987 443.627C569.322 444.648 567.64 445.652 565.958 446.64C565.112 447.134 564.259 447.627 563.413 448.113V448.138L563.363 448.146L563.346 448.155L562.057 448.473L560.208 443.585L559.354 441.334L558.149 438.145L555.939 432.312L544.306 401.596L562.392 397.135L563.07 399.906H563.078L563.413 401.278L569.732 426.905L571.021 432.144L571.063 432.303L571.841 435.433L572.511 438.145L573.256 441.175L573.482 442.087Z" fill="#A0616A"/>
<path d="M681.372 334.221C680.226 336.063 679.054 337.896 677.874 339.712C675.681 343.093 673.43 346.424 671.12 349.705C671.12 349.713 671.111 349.713 671.103 349.721C669.755 350.97 668.267 352.057 666.667 352.96C666.6 353.011 666.525 353.044 666.458 353.086C665.28 353.737 664.027 354.24 662.725 354.584C662.257 354.701 661.78 354.818 661.311 354.935C659.62 355.337 657.946 355.68 656.281 355.982C653.318 356.509 650.389 356.885 647.476 357.12C647.242 357.145 647.008 357.162 646.773 357.178C634.797 358.057 623.138 356.643 610.969 354.324C604.96 353.186 598.826 351.822 592.473 350.408C590.398 349.939 588.314 349.479 586.205 349.018C586.046 348.985 585.878 348.943 585.711 348.909C582.698 348.248 579.635 347.596 576.496 346.951C572.546 346.139 568.47 345.352 564.235 344.608L564.536 350.575C564.787 355.165 565.741 359.69 567.365 363.991C569.173 369.28 570.604 373.465 567.583 382.178L566.127 386.396C566.882 388.49 567.141 390.731 566.884 392.943C566.627 395.155 565.86 397.276 564.645 399.142L564.352 399.586L576.496 430.309L577.283 432.301H571.064L563.415 432.31H550.451L531.745 394.782L530.85 392.991V392.899L532.783 320.78C532.808 320.144 532.859 319.5 532.942 318.864C533.283 315.972 534.197 313.177 535.629 310.643C537.062 308.108 538.985 305.884 541.286 304.1C543.492 302.377 546.018 301.109 548.718 300.37C551.417 299.632 554.237 299.437 557.012 299.798L563.415 300.627L576.496 302.317L585.711 303.514L585.895 303.539L613.07 307.054L615.02 299.104L615.38 298.97L626.821 294.777L666.391 280.273L666.492 280.239L669.094 279.285L669.404 279.787C669.496 279.938 669.588 280.089 669.672 280.239C672.244 284.851 674.339 289.714 675.924 294.752C678.588 302.981 680.782 311.356 682.494 319.834C682.569 320.203 682.636 320.537 682.695 320.839L682.72 320.931C682.745 321.073 682.761 321.165 682.77 321.19C683.682 324.99 683.046 329.627 681.372 334.221Z" fill="#2F2E41"/>
<path d="M683.042 307.644C682.917 307.108 682.758 306.564 682.59 306.037C681.262 302.043 679.714 298.126 677.954 294.303C675.979 289.951 673.61 285.289 670.79 280.242C669.425 277.799 667.958 275.257 666.387 272.618C665.601 271.296 664.783 269.948 663.935 268.576C663.902 268.512 663.866 268.451 663.826 268.391L663.584 267.99L624.432 273.229L609.853 275.179L608.982 282.444L608.773 284.243C608.765 284.243 608.765 284.243 608.773 284.251L608.187 289.156V289.164L607.409 295.642L607.342 295.634L585.707 292.83L563.411 289.942L551.435 288.394C548.659 288.032 545.839 288.227 543.14 288.965C540.44 289.704 537.914 290.972 535.709 292.696C533.408 294.48 531.485 296.704 530.052 299.239C528.62 301.774 527.706 304.568 527.365 307.459C527.289 308.045 527.239 308.648 527.214 309.242L515.915 336.016C509.154 352.028 504.849 368.968 503.144 386.265L494.858 412.754L496.038 412.863L513.597 414.495L518.234 414.93L528.444 400.024C529.608 398.325 530.712 396.576 531.742 394.785C533.437 391.86 534.943 388.829 536.253 385.713L558.339 333.153C560.047 333.446 561.737 333.725 563.411 333.99C571.153 335.246 578.585 336.27 585.707 337.062C608.865 339.648 628.918 339.849 646.77 337.656C651.783 337.045 656.629 336.242 661.307 335.246C663.023 334.886 664.716 334.498 666.387 334.082C666.781 333.99 667.166 333.898 667.551 333.798C671.01 332.906 674.189 331.16 676.799 328.722C679.409 326.283 681.366 323.228 682.49 319.838C683.832 315.909 684.024 311.678 683.042 307.644Z" fill="#2F2E41"/>
<path d="M500.734 441.988L488.406 436.079L486.472 435.15L483.384 442.733L461.825 447.478C460.759 447.712 459.795 448.28 459.075 449.101C458.355 449.921 457.917 450.95 457.823 452.037C457.73 453.124 457.986 454.213 458.556 455.144C459.125 456.075 459.977 456.8 460.988 457.212L482.053 465.807L488.74 459.79L487.1 467.866L495.034 471.105L503.73 443.428L500.734 441.988Z" fill="#2F2E41"/>
<path d="M576.496 430.31L577.283 432.301H576.496V430.31Z" fill="#2F2E41"/>
<path d="M429.196 285.462C429.196 280.976 427.69 277.335 425.84 277.327H286.499C284.641 277.335 283.143 280.976 283.135 285.462V470.125C283.135 470.541 282.98 470.943 282.7 471.251C282.42 471.56 282.036 471.753 281.621 471.793C280.268 471.923 278.914 472.044 277.561 472.156C277.527 472.156 277.494 472.165 277.46 472.165C276.724 472.231 275.987 472.282 275.251 472.34H275.243C274.864 471.64 274.489 470.933 274.119 470.221C273.994 469.981 273.929 469.714 273.929 469.443V274.908C273.929 273.669 273.979 272.422 274.063 271.192C274.182 269.503 274.391 267.821 274.69 266.154C276.105 258.379 279.302 253.114 282.934 253.098H429.397C429.927 253.101 430.451 253.212 430.937 253.424C431.651 253.74 432.296 254.192 432.837 254.755C433.571 255.518 434.199 256.376 434.703 257.307C436.494 260.463 437.775 265.166 438.227 270.64C438.227 270.69 438.235 270.74 438.235 270.79C438.352 272.146 438.411 273.527 438.402 274.908L438.52 292.843L438.595 303.539L438.821 337.1L438.905 349.018L439.273 471.378C439.273 471.822 439.096 472.247 438.783 472.561C438.469 472.875 438.043 473.052 437.599 473.052H430.87C430.426 473.052 430 472.875 429.686 472.561C429.373 472.247 429.196 471.822 429.196 471.378L429.196 285.462Z" fill="#3F3D56"/>
<path d="M329.871 203.342L320.178 245.988L313.985 252.772H309.516L327.932 175.234L328.843 188.406V188.415L329.871 203.342Z" fill="#3F3D56"/>
<path d="M376.516 246.924L319.655 246.564L314.608 246.531L311.009 246.506L306.816 246.481H306.783C306.175 246.482 305.591 246.722 305.159 247.15L298.079 254.231C297.922 254.385 297.795 254.567 297.702 254.766C297.658 254.823 297.622 254.885 297.593 254.95C297.44 255.306 297.377 255.695 297.409 256.081C297.441 256.467 297.568 256.84 297.778 257.165C297.988 257.491 298.275 257.76 298.613 257.949C298.952 258.138 299.332 258.24 299.719 258.248H373.378C373.82 258.246 374.252 258.12 374.625 257.883C374.999 257.646 375.297 257.308 375.487 256.909L376.064 255.653L377.253 253.101L378.6 250.222C378.744 249.915 378.818 249.581 378.818 249.243C378.814 248.632 378.571 248.046 378.141 247.613C377.711 247.179 377.127 246.932 376.516 246.924V246.924Z" fill="#3F3D56"/>
<path opacity="0.17" d="M376.064 255.651L375.483 256.911C375.293 257.31 374.996 257.647 374.624 257.883C374.251 258.12 373.82 258.247 373.379 258.249H299.718C299.331 258.242 298.951 258.14 298.612 257.951C298.274 257.762 297.987 257.493 297.777 257.168C297.568 256.842 297.441 256.469 297.409 256.083C297.378 255.697 297.442 255.309 297.595 254.954C297.621 254.887 297.657 254.825 297.702 254.769L376.064 255.651Z" fill="black"/>
<path opacity="0.17" d="M328.843 188.406V188.415L313.073 252.772H309.516L327.932 175.234L328.843 188.406Z" fill="black"/>
<path d="M348.194 200.198L325.873 30.3764C325.792 29.7399 325.461 29.1619 324.953 28.7695L309.587 9.53678L308.206 8.47389C307.694 8.08659 307.051 7.91531 306.415 7.99683L304.105 8.30649C303.468 8.38862 302.889 8.72047 302.497 9.229C302.105 9.73753 301.93 10.3811 302.012 11.0182V11.0182L325.145 186.975V186.983L326.56 197.746L328.242 210.526V210.543L330.853 230.428C330.895 230.769 331.01 231.097 331.19 231.389C331.371 231.68 331.613 231.93 331.899 232.119C332.181 232.313 332.5 232.444 332.836 232.505C333.173 232.565 333.518 232.554 333.849 232.47L335.314 232.102C335.875 231.958 336.367 231.62 336.703 231.148L337.356 230.219L337.657 229.784L347.768 201.914C348.122 201.417 348.275 200.804 348.194 200.198V200.198Z" fill="#3F3D56"/>
<path opacity="0.17" d="M309.583 9.53754L337.66 229.788L337.355 230.219L336.704 231.145C336.369 231.617 335.876 231.956 335.315 232.1L333.848 232.468C333.516 232.551 333.17 232.562 332.834 232.502C332.497 232.441 332.177 232.31 331.894 232.118C331.611 231.925 331.373 231.675 331.193 231.384C331.014 231.093 330.897 230.767 330.852 230.428L302.016 11.0208C301.933 10.3837 302.105 9.73948 302.497 9.22978C302.888 8.72008 303.466 8.3866 304.103 8.30265L306.419 7.99827C306.733 7.95582 307.052 7.97633 307.358 8.05861C307.665 8.14089 307.951 8.2833 308.202 8.47753L309.583 9.53754Z" fill="black"/>
<path d="M310.41 15.8365L325.31 37.1038L343.02 171.851L333.418 190.898L310.41 15.8365Z" fill="#00909A"/>
<path d="M630.627 471.65L620.409 471.841L648.81 373.185L659.028 376.341L630.627 471.65Z" fill="#3F3D56"/>
<path d="M697.642 471.838L687.432 471.646L659.411 377.583L659.026 376.344L665.579 374.319C666.877 374.344 668.224 374.361 669.613 374.377L670.609 377.6L697.642 471.838Z" fill="#3F3D56"/>
<path d="M572.203 432.727L559.285 437.203L557.258 437.903L560.399 445.464L548.418 464.006C547.825 464.922 547.541 466.003 547.606 467.093C547.672 468.182 548.084 469.222 548.782 470.06C549.481 470.899 550.429 471.492 551.489 471.753C552.549 472.014 553.664 471.929 554.672 471.511L575.689 462.796L576.206 453.815L580.723 460.708L588.64 457.427L575.345 431.642L572.203 432.727Z" fill="#2F2E41"/>
<path d="M493.8 155.809C494.413 157.003 495.279 158.047 496.339 158.869C497.399 159.691 498.626 160.271 499.934 160.567C501.242 160.864 502.599 160.87 503.91 160.585C505.221 160.301 506.453 159.732 507.52 158.919L534.683 176.951L534.735 160.009L508.933 145.483C507.449 143.781 505.392 142.682 503.152 142.395C500.913 142.108 498.645 142.652 496.78 143.925C494.915 145.198 493.581 147.111 493.032 149.301C492.483 151.491 492.756 153.807 493.8 155.809V155.809Z" fill="#A0616A"/>
<path d="M514.093 163.64L526.766 149.222L578.368 179.856L646.771 173.592C650.153 173.282 653.56 173.721 656.753 174.877C659.946 176.032 662.845 177.877 665.244 180.279C667.644 182.681 669.486 185.581 670.638 188.775C671.791 191.969 672.226 195.377 671.913 198.758C671.341 204.864 668.37 210.494 663.653 214.412C658.935 218.33 652.856 220.217 646.749 219.658L569.71 212.528L514.093 163.64Z" fill="#E6E6E6"/>
<path d="M672.857 163.863L672.738 163.713L640.407 160.523L618.563 199.002C599.785 221.958 613.43 237.789 614.247 240.143L607.729 270.195L609.19 280.253L609.92 283.24L684.32 322.116L669.028 271.173L683.959 224.715C687.269 214.443 687.988 203.512 686.051 192.894C684.114 182.277 679.581 172.304 672.857 163.863V163.863Z" fill="#E6E6E6"/>
<path d="M708.28 130.002C708.296 130.412 708.305 130.822 708.305 131.224C708.298 135.656 707.242 140.024 705.223 143.971C703.205 147.917 700.282 151.33 696.692 153.931C693.102 156.531 688.948 158.245 684.569 158.933C680.19 159.621 675.711 159.263 671.496 157.888L666.333 156.206C666.291 156.189 666.241 156.181 666.199 156.164L657.687 153.385C657.659 153.026 657.665 152.664 657.704 152.306C645.008 146.883 662.558 129.064 666.918 115.682C667.596 113.598 644.288 115.154 645.393 113.372C645.15 113.246 644.907 113.121 644.681 112.995C648.618 106.782 654.439 101.989 661.293 99.3184C668.147 96.6473 675.675 96.2372 682.778 98.148C682.962 98.1898 683.155 98.2484 683.339 98.2986C699.877 98.7087 708.564 110.233 708.564 125.198C708.563 126.803 708.468 128.407 708.28 130.002V130.002Z" fill="#2F2E41"/>
<path d="M693.951 135.894C691.732 142.689 686.906 148.325 680.532 151.563C674.159 154.801 666.76 155.375 659.964 153.159C659.194 152.908 658.44 152.624 657.704 152.306C651.518 149.655 646.549 144.785 643.772 138.655C640.995 132.525 640.612 125.578 642.698 119.18C643.36 117.143 644.264 115.193 645.393 113.372C648.858 107.76 654.26 103.614 660.576 101.718C666.892 99.8215 673.685 100.307 679.668 103.081C685.65 105.856 690.408 110.728 693.04 116.775C695.673 122.822 695.997 129.624 693.951 135.894V135.894Z" fill="#A0616A"/>
<path d="M666.332 156.206C666.291 156.189 666.24 156.181 666.199 156.164L657.687 153.385C657.659 153.026 657.665 152.664 657.704 152.306C657.957 149.503 659.924 146.569 662.565 143.4C664.265 141.374 665.447 138.965 666.009 136.38C666.571 133.796 666.495 131.113 665.79 128.564C665.084 126.015 663.769 123.675 661.958 121.748C660.147 119.82 657.894 118.361 655.394 117.498C655.321 117.473 655.249 117.448 655.176 117.422C651.824 116.303 648.555 114.949 645.392 113.372C645.15 113.246 644.907 113.121 644.681 112.995C642.555 111.823 641.015 110.652 640.337 109.53C641.351 106.421 642.967 103.542 645.093 101.058C647.219 98.5735 649.814 96.5324 652.73 95.0511C655.645 93.5697 658.823 92.6772 662.084 92.4245C665.344 92.1718 668.622 92.5638 671.731 93.5782L676.669 95.1852C682.896 97.209 688.071 101.613 691.064 107.438C694.545 109.932 697.291 113.598 699.442 117.925C710.255 139.635 689.382 163.604 666.332 156.206Z" fill="#2F2E41"/>
<path d="M682.628 287.504C682.628 288.976 682.181 290.413 681.347 291.627C680.514 292.84 679.332 293.772 677.958 294.3C677.306 294.55 676.62 294.702 675.924 294.752C675.74 294.768 675.547 294.777 675.363 294.777H661.311V362.953C661.102 363.229 660.884 363.506 660.667 363.782C659.461 365.322 658.24 366.862 657.001 368.377C656.733 368.711 656.465 369.038 656.206 369.364C655.796 369.858 655.394 370.352 654.992 370.837C654.85 371.005 654.716 371.164 654.582 371.331C653.896 372.151 653.21 372.971 652.507 373.791V373.8C652.498 373.808 652.498 373.808 652.498 373.817L652.147 374.218C651.586 374.88 651.025 375.549 650.448 376.21C649.663 375.775 648.97 375.192 648.406 374.495C648.055 374.075 647.758 373.614 647.518 373.122C647.51 373.114 647.51 373.105 647.502 373.088C647.492 373.07 647.483 373.05 647.477 373.03C647.007 372.051 646.767 370.977 646.774 369.891V294.777H615.271C614.342 294.782 613.42 294.603 612.56 294.249C611.475 293.817 610.511 293.128 609.751 292.242C608.99 291.356 608.455 290.299 608.191 289.161V289.153C607.799 287.5 608.006 285.762 608.777 284.248C608.769 284.24 608.769 284.24 608.777 284.24C609.102 283.579 609.535 282.976 610.057 282.457V282.449C610.057 282.44 610.057 282.44 610.066 282.432C610.744 281.738 611.554 281.187 612.448 280.811C613.341 280.434 614.302 280.24 615.271 280.239H675.363C677.29 280.24 679.137 281.006 680.499 282.368C681.861 283.73 682.627 285.577 682.628 287.504V287.504Z" fill="#3F3D56"/>
<path d="M722.642 146.792C719.702 146.242 716.682 146.277 713.755 146.894C710.829 147.511 708.052 148.699 705.584 150.389C703.117 152.079 701.006 154.239 699.373 156.745C697.74 159.251 696.616 162.054 696.066 164.994V164.994C695.096 170.187 695.961 175.557 698.514 180.183C701.066 184.809 705.147 188.404 710.058 190.353L703.211 226.971L717.501 229.643L732.645 148.663L722.642 146.792Z" fill="#3F3D56"/>
<path d="M702.07 119.866C708.541 119.866 713.787 114.62 713.787 108.149C713.787 101.678 708.541 96.4323 702.07 96.4323C695.598 96.4323 690.353 101.678 690.353 108.149C690.353 114.62 695.598 119.866 702.07 119.866Z" fill="#2F2E41"/>
<path d="M838.658 141.793C833.574 143.489 828.138 143.777 822.78 143.87C807.188 144.14 791.2 142.774 777.009 136.308C762.818 129.842 750.601 117.555 747.447 102.283C746.087 95.701 746.247 88.3694 742.099 83.0808C737.176 76.804 727.283 75.9484 720.391 79.966C713.5 83.9836 709.476 91.8019 708.306 99.6926L705.53 104.206C705.595 107.111 708.739 109.044 711.632 109.316C714.526 109.589 717.435 108.791 720.334 109.007C726.685 109.479 731.864 114.912 733.715 121.007C735.567 127.101 734.675 133.693 733.091 139.862C731.507 146.031 729.243 152.049 728.338 158.354C727.434 164.659 728.048 171.501 731.757 176.679C734.541 180.565 738.784 183.141 743.098 185.202C753.541 190.191 764.98 192.746 776.553 192.675C788.126 192.603 799.533 189.907 809.914 184.79C820.294 179.672 829.379 172.267 836.484 163.13C843.588 153.994 848.527 143.365 850.93 132.043C848.501 136.821 843.742 140.096 838.658 141.793Z" fill="#2F2E41"/>
<path d="M613.699 389.561H589.835C588.522 389.56 587.254 389.085 586.263 388.224C585.272 387.363 584.625 386.174 584.441 384.874C582.967 374.031 582.967 363.038 584.441 352.194C584.623 350.91 585.257 349.733 586.229 348.874C587.2 348.016 588.446 347.531 589.743 347.508C597.252 344.143 605.338 344.143 613.782 347.508C614.568 347.519 615.343 347.701 616.051 348.043C616.759 348.384 617.384 348.877 617.882 349.486C618.401 350.119 618.772 350.86 618.969 351.655C619.166 352.45 619.183 353.279 619.02 354.081C617.103 363.621 617.103 373.447 619.02 382.987C619.183 383.79 619.166 384.619 618.969 385.413C618.772 386.208 618.401 386.949 617.882 387.583C617.376 388.202 616.737 388.701 616.014 389.044C615.29 389.386 614.5 389.562 613.699 389.561V389.561Z" fill="#00909A"/>
<path d="M611.2 359.968H591.114C590.781 359.968 590.462 359.835 590.226 359.6C589.991 359.365 589.858 359.045 589.858 358.712C589.858 358.379 589.991 358.06 590.226 357.825C590.462 357.589 590.781 357.457 591.114 357.457H611.2C611.533 357.457 611.852 357.589 612.088 357.825C612.323 358.06 612.456 358.379 612.456 358.712C612.456 359.045 612.323 359.365 612.088 359.6C611.852 359.835 611.533 359.968 611.2 359.968Z" fill="white"/>
<path d="M611.2 370.011H591.114C590.781 370.011 590.462 369.879 590.226 369.643C589.991 369.408 589.858 369.088 589.858 368.755C589.858 368.423 589.991 368.103 590.226 367.868C590.462 367.632 590.781 367.5 591.114 367.5H611.2C611.533 367.5 611.852 367.632 612.088 367.868C612.323 368.103 612.456 368.423 612.456 368.755C612.456 369.088 612.323 369.408 612.088 369.643C611.852 369.879 611.533 370.011 611.2 370.011Z" fill="white"/>
<path d="M611.2 380.054H591.114C590.781 380.054 590.462 379.922 590.226 379.686C589.991 379.451 589.858 379.132 589.858 378.799C589.858 378.466 589.991 378.146 590.226 377.911C590.462 377.676 590.781 377.543 591.114 377.543H611.2C611.533 377.543 611.852 377.676 612.088 377.911C612.323 378.146 612.456 378.466 612.456 378.799C612.456 379.132 612.323 379.451 612.088 379.686C611.852 379.922 611.533 380.054 611.2 380.054Z" fill="white"/>
<path d="M328.526 123.548V123.546C328.552 123.343 328.656 123.157 328.816 123.029C328.976 122.901 329.18 122.84 329.384 122.86L458.507 123.204C458.711 123.185 458.914 123.247 459.073 123.375C459.232 123.504 459.335 123.689 459.359 123.892V123.895C459.334 124.098 459.23 124.284 459.07 124.412C458.91 124.54 458.706 124.601 458.501 124.581L329.379 124.236C329.175 124.255 328.972 124.194 328.813 124.066C328.653 123.937 328.551 123.752 328.526 123.548V123.548Z" fill="#3F3D56"/>
<path d="M362.672 203.074L357.189 209.104C356.935 209.318 356.625 209.454 356.295 209.497C355.966 209.54 355.631 209.487 355.331 209.345C354.421 209.023 353.612 208.469 352.984 207.737C349.066 203.29 344.667 199.29 339.868 195.812C339.08 195.256 338.451 194.503 338.044 193.629C337.879 193.347 337.796 193.025 337.803 192.699C337.81 192.373 337.908 192.055 338.085 191.781C338.14 188.482 339.999 186.438 343.61 185.705C344.243 185.046 345.674 185.296 346.956 186.296C352.23 190.411 357.187 194.918 361.784 199.778C362.913 200.972 363.295 202.389 362.672 203.074Z" fill="#00909A"/>
<path d="M348.58 190.094L343.966 195.169C343.806 195.345 343.422 195.255 343.108 194.969C342.793 194.682 342.667 194.309 342.826 194.133L347.441 189.058C347.6 188.883 347.984 188.973 348.299 189.259C348.614 189.545 348.74 189.919 348.58 190.094Z" fill="white"/>
<path d="M353.137 194.237L348.523 199.312C348.363 199.488 347.979 199.398 347.665 199.112C347.35 198.826 347.224 198.452 347.383 198.277L351.998 193.201C352.157 193.026 352.541 193.116 352.856 193.402C353.171 193.688 353.297 194.062 353.137 194.237Z" fill="white"/>
<path d="M357.694 198.38L353.08 203.456C352.921 203.631 352.536 203.541 352.222 203.255C351.907 202.969 351.781 202.595 351.941 202.42L356.555 197.344C356.715 197.169 357.099 197.259 357.413 197.545C357.728 197.831 357.854 198.205 357.694 198.38Z" fill="white"/>
<path d="M851.67 472.321C851.67 472.452 851.645 472.581 851.595 472.702C851.545 472.824 851.472 472.933 851.379 473.026C851.287 473.119 851.177 473.192 851.056 473.242C850.935 473.292 850.805 473.317 850.674 473.317H128.996C128.732 473.317 128.478 473.212 128.292 473.025C128.105 472.838 128 472.585 128 472.321C128 472.057 128.105 471.803 128.292 471.617C128.478 471.43 128.732 471.325 128.996 471.325H850.674C850.805 471.325 850.935 471.35 851.056 471.4C851.177 471.45 851.287 471.523 851.379 471.616C851.472 471.708 851.545 471.818 851.595 471.939C851.645 472.06 851.67 472.19 851.67 472.321V472.321Z" fill="#CCCCCC"/>
<path d="M620.692 359.054C621.847 358.372 622.838 357.445 623.596 356.338C624.353 355.231 624.859 353.972 625.078 352.649C625.296 351.325 625.222 349.97 624.86 348.679C624.498 347.387 623.857 346.191 622.982 345.174L639.371 316.989L622.456 317.942L609.486 344.561C607.875 346.143 606.9 348.261 606.746 350.514C606.592 352.767 607.27 354.998 608.651 356.785C610.033 358.571 612.021 359.789 614.24 360.207C616.459 360.626 618.755 360.215 620.692 359.054V359.054Z" fill="#A0616A"/>
<path d="M627.305 338.333L612.161 326.537L639.679 273.209L629.368 205.297C628.858 201.941 629.094 198.513 630.058 195.257C631.022 192.002 632.691 188.998 634.947 186.46C637.202 183.922 639.989 181.912 643.108 180.572C646.228 179.232 649.605 178.595 652.998 178.707V178.707C659.127 178.916 664.923 181.547 669.114 186.024C673.305 190.501 675.55 196.458 675.354 202.587L672.807 279.914L627.305 338.333Z" fill="#E6E6E6"/>
<path d="M495.971 170.297H444.834C443.463 170.296 442.15 169.75 441.181 168.781C440.211 167.812 439.666 166.498 439.665 165.128V97.4168C439.666 96.0463 440.211 94.7324 441.181 93.7634C442.15 92.7943 443.463 92.2492 444.834 92.2477H495.971C497.341 92.2492 498.655 92.7943 499.624 93.7634C500.593 94.7324 501.139 96.0463 501.14 97.4168V165.128C501.139 166.498 500.593 167.812 499.624 168.781C498.655 169.75 497.341 170.296 495.971 170.297Z" fill="#E6E6E6"/>
<path d="M492.376 165.989H448.429C447.212 165.987 446.045 165.504 445.185 164.643C444.324 163.783 443.84 162.616 443.839 161.399V101.145C443.84 99.9286 444.324 98.762 445.185 97.9016C446.045 97.0412 447.212 96.5572 448.429 96.5558H492.376C493.593 96.5572 494.76 97.0412 495.62 97.9016C496.481 98.762 496.965 99.9286 496.966 101.145V161.399C496.965 162.616 496.481 163.783 495.62 164.643C494.76 165.504 493.593 165.987 492.376 165.989V165.989Z" fill="white"/>
<path d="M487.992 108.006H452.813C452.662 108.007 452.512 107.977 452.373 107.92C452.233 107.863 452.106 107.778 451.999 107.671C451.893 107.565 451.808 107.438 451.75 107.299C451.692 107.159 451.662 107.01 451.662 106.859C451.662 106.708 451.692 106.559 451.75 106.419C451.808 106.28 451.893 106.153 451.999 106.047C452.106 105.94 452.233 105.856 452.373 105.798C452.512 105.741 452.662 105.711 452.813 105.712H487.992C488.143 105.711 488.293 105.741 488.432 105.798C488.572 105.856 488.699 105.94 488.806 106.047C488.913 106.153 488.997 106.28 489.055 106.419C489.113 106.559 489.143 106.708 489.143 106.859C489.143 107.01 489.113 107.159 489.055 107.299C488.997 107.438 488.913 107.565 488.806 107.671C488.699 107.778 488.572 107.863 488.432 107.92C488.293 107.977 488.143 108.007 487.992 108.006V108.006Z" fill="#00909A"/>
<path d="M487.992 112.54H452.813C452.508 112.54 452.217 112.419 452.001 112.204C451.786 111.989 451.665 111.697 451.665 111.393C451.665 111.088 451.786 110.797 452.001 110.581C452.217 110.366 452.508 110.245 452.813 110.245H487.992C488.143 110.245 488.292 110.275 488.431 110.333C488.571 110.39 488.697 110.475 488.804 110.581C488.91 110.688 488.995 110.814 489.052 110.954C489.11 111.093 489.14 111.242 489.14 111.393C489.14 111.543 489.11 111.693 489.052 111.832C488.995 111.971 488.91 112.097 488.804 112.204C488.697 112.311 488.571 112.395 488.431 112.453C488.292 112.51 488.143 112.54 487.992 112.54V112.54Z" fill="#00909A"/>
<path d="M468.062 117.074H452.813C452.508 117.074 452.217 116.953 452.001 116.738C451.786 116.523 451.665 116.231 451.665 115.926C451.665 115.622 451.786 115.33 452.001 115.115C452.217 114.9 452.508 114.779 452.813 114.779H468.062C468.367 114.779 468.658 114.9 468.874 115.115C469.089 115.33 469.21 115.622 469.21 115.926C469.21 116.231 469.089 116.523 468.874 116.738C468.658 116.953 468.367 117.074 468.062 117.074V117.074Z" fill="#00909A"/>
<path d="M487.992 126.569H452.813C452.662 126.569 452.512 126.54 452.373 126.482C452.233 126.425 452.106 126.341 451.999 126.234C451.893 126.127 451.808 126.001 451.75 125.861C451.692 125.722 451.662 125.573 451.662 125.422C451.662 125.271 451.692 125.121 451.75 124.982C451.808 124.842 451.893 124.716 451.999 124.609C452.106 124.503 452.233 124.418 452.373 124.361C452.512 124.303 452.662 124.274 452.813 124.274H487.992C488.143 124.274 488.293 124.303 488.432 124.361C488.572 124.418 488.699 124.503 488.806 124.609C488.913 124.716 488.997 124.842 489.055 124.982C489.113 125.121 489.143 125.271 489.143 125.422C489.143 125.573 489.113 125.722 489.055 125.861C488.997 126.001 488.913 126.127 488.806 126.234C488.699 126.341 488.572 126.425 488.432 126.482C488.293 126.54 488.143 126.569 487.992 126.569Z" fill="#E4E4E4"/>
<path d="M487.992 131.103H452.813C452.662 131.103 452.512 131.074 452.373 131.016C452.233 130.959 452.106 130.874 451.999 130.768C451.893 130.661 451.808 130.534 451.75 130.395C451.692 130.256 451.662 130.106 451.662 129.955C451.662 129.804 451.692 129.655 451.75 129.515C451.808 129.376 451.893 129.249 451.999 129.143C452.106 129.036 452.233 128.952 452.373 128.894C452.512 128.837 452.662 128.807 452.813 128.808H487.992C488.143 128.807 488.293 128.837 488.432 128.894C488.572 128.952 488.699 129.036 488.806 129.143C488.913 129.249 488.997 129.376 489.055 129.515C489.113 129.655 489.143 129.804 489.143 129.955C489.143 130.106 489.113 130.256 489.055 130.395C488.997 130.534 488.913 130.661 488.806 130.768C488.699 130.874 488.572 130.959 488.432 131.016C488.293 131.074 488.143 131.103 487.992 131.103V131.103Z" fill="#E4E4E4"/>
<path d="M468.062 135.636H452.813C452.508 135.636 452.217 135.515 452.001 135.3C451.786 135.085 451.665 134.793 451.665 134.489C451.665 134.185 451.786 133.893 452.001 133.678C452.217 133.462 452.508 133.341 452.813 133.341H468.062C468.367 133.341 468.658 133.462 468.874 133.678C469.089 133.893 469.21 134.185 469.21 134.489C469.21 134.793 469.089 135.085 468.874 135.3C468.658 135.515 468.367 135.636 468.062 135.636Z" fill="#E4E4E4"/>
<path d="M487.992 145.131H452.813C452.508 145.131 452.217 145.011 452.001 144.795C451.786 144.58 451.665 144.288 451.665 143.984C451.665 143.68 451.786 143.388 452.001 143.173C452.217 142.958 452.508 142.837 452.813 142.837H487.992C488.297 142.837 488.588 142.958 488.804 143.173C489.019 143.388 489.14 143.68 489.14 143.984C489.14 144.288 489.019 144.58 488.804 144.795C488.588 145.011 488.297 145.131 487.992 145.131V145.131Z" fill="#E4E4E4"/>
<path d="M487.992 149.665H452.813C452.508 149.665 452.217 149.544 452.001 149.329C451.786 149.114 451.665 148.822 451.665 148.518C451.665 148.213 451.786 147.922 452.001 147.706C452.217 147.491 452.508 147.37 452.813 147.37H487.992C488.297 147.37 488.589 147.491 488.804 147.706C489.019 147.922 489.14 148.213 489.14 148.518C489.14 148.822 489.019 149.114 488.804 149.329C488.589 149.544 488.297 149.665 487.992 149.665V149.665Z" fill="#E4E4E4"/>
<path d="M468.062 154.199H452.813C452.508 154.199 452.217 154.078 452.001 153.863C451.786 153.647 451.665 153.356 451.665 153.051C451.665 152.747 451.786 152.455 452.001 152.24C452.217 152.025 452.508 151.904 452.813 151.904H468.062C468.367 151.904 468.658 152.025 468.874 152.24C469.089 152.455 469.21 152.747 469.21 153.051C469.21 153.356 469.089 153.647 468.874 153.863C468.658 154.078 468.367 154.199 468.062 154.199Z" fill="#E4E4E4"/>
<path d="M321.956 80.0778L459.141 -37.2626H459.359V-35.5402H459.777L323.076 81.3867L321.956 80.0778Z" fill="#2F2E41"/>
<path d="M416.672 214.834H353.594C352.608 214.835 351.664 215.227 350.967 215.924C350.27 216.621 349.878 217.565 349.877 218.551V257.823C349.878 258.808 350.27 259.753 350.967 260.45C351.664 261.147 352.608 261.539 353.594 261.54H416.672C417.657 261.539 418.602 261.147 419.299 260.45C419.996 259.753 420.388 258.808 420.389 257.823V218.551C420.388 217.565 419.996 216.62 419.299 215.924C418.602 215.227 417.657 214.835 416.672 214.834V214.834Z" fill="white"/>
<path d="M416.672 214.834H353.594C352.608 214.835 351.664 215.227 350.967 215.924C350.27 216.621 349.878 217.565 349.877 218.551V257.823C349.878 258.808 350.27 259.753 350.967 260.45C351.664 261.147 352.608 261.539 353.594 261.54H416.672C417.657 261.539 418.602 261.147 419.299 260.45C419.996 259.753 420.388 258.808 420.389 257.823V218.551C420.388 217.565 419.996 216.62 419.299 215.924C418.602 215.227 417.657 214.835 416.672 214.834V214.834ZM417.892 243.043C417.877 247.041 416.295 250.874 413.486 253.72C410.678 256.565 406.866 258.197 402.868 258.264C396.468 258.347 406.41 258.38 398.69 258.38C381.039 258.38 362.633 258.211 355.765 258.102C354.862 258.083 354.001 257.712 353.368 257.068C352.734 256.423 352.377 255.557 352.374 254.653V218.554C352.374 218.23 352.503 217.92 352.731 217.691C352.96 217.462 353.27 217.332 353.594 217.331H416.669C416.993 217.332 417.303 217.46 417.532 217.689C417.761 217.917 417.89 218.227 417.892 218.551V243.043Z" fill="#CACACA"/>
<path d="M408.351 239.899H360.292C359.867 239.898 359.452 239.766 359.104 239.521C358.757 239.276 358.494 238.93 358.35 238.529L350.928 217.706C350.817 217.395 350.783 217.062 350.827 216.735C350.872 216.408 350.994 216.097 351.184 215.827C351.374 215.557 351.626 215.337 351.919 215.184C352.212 215.032 352.537 214.953 352.867 214.952L417.321 214.838H417.324C417.665 214.838 418.001 214.922 418.301 215.084C418.602 215.246 418.857 215.48 419.045 215.764C419.233 216.049 419.347 216.376 419.377 216.716C419.407 217.056 419.353 217.398 419.219 217.711L419.106 217.663L419.219 217.711L410.245 238.649C410.086 239.02 409.822 239.336 409.486 239.558C409.149 239.781 408.754 239.899 408.351 239.899V239.899Z" fill="#CACACA"/>
<path d="M385.097 245.034C387.933 245.034 390.232 242.735 390.232 239.899C390.232 237.063 387.933 234.763 385.097 234.763C382.26 234.763 379.961 237.063 379.961 239.899C379.961 242.735 382.26 245.034 385.097 245.034Z" fill="#3F3D56"/>
<path d="M246.954 446.613C245.95 454.011 240.92 460.69 234.451 465.051C232.909 466.092 231.283 467.002 229.588 467.771C227.725 468.612 225.803 469.317 223.838 469.88C215.218 472.399 205.903 472.508 196.839 472.558C187.675 472.616 178.513 472.675 169.354 472.734C162.131 472.775 154.674 472.775 148.004 470.005C147.904 469.968 147.806 469.927 147.711 469.88C141.158 467.051 135.576 460.832 135.735 453.719C135.798 451.212 136.508 448.765 137.793 446.613C138.644 445.167 139.667 443.829 140.84 442.629C144.472 438.863 149.51 435.909 154.231 433.532C162.014 429.623 170.81 424.551 173.087 416.517C173.327 415.671 173.49 414.806 173.572 413.931C174.108 408.407 171.421 403.327 167.998 398.782C167.663 398.33 167.312 397.878 166.952 397.426C166.182 396.464 165.387 395.518 164.6 394.614C164.266 394.229 163.931 393.836 163.588 393.443C160.424 389.777 157.235 385.86 155.57 381.483C154.853 379.65 154.454 377.709 154.39 375.742C154.206 368.636 162.148 361.48 168.157 364.836C171.103 364.552 174.049 364.259 176.995 363.958C180.611 363.598 184.21 363.238 187.817 362.87H187.825C188.637 362.803 189.432 362.719 190.227 362.635C197.734 361.89 205.236 361.14 212.732 360.384C216.063 360.057 219.98 359.932 222.148 362.493C224.508 365.288 223.286 369.707 220.951 372.528C218.616 375.34 215.377 377.332 213.184 380.244C210.347 384.01 209.686 388.773 210.498 393.443C210.733 394.799 211.086 396.132 211.552 397.426C212.372 399.739 213.507 401.927 214.925 403.929C219.846 410.826 227.136 415.58 233.605 421.045C240.083 426.518 246.143 433.465 247.03 441.884C247.055 442.127 247.08 442.378 247.088 442.629C247.182 443.958 247.137 445.293 246.954 446.613V446.613Z" fill="#E6E6E6"/>
<path d="M194.321 369.979C187.791 363.527 182.228 356.165 177.806 348.12C173.398 340.116 170.142 331.53 168.135 322.616C166.099 313.57 165.425 304.27 166.135 295.024C167.606 276.195 174.563 258.209 186.148 243.291C186.855 242.384 187.58 241.49 188.321 240.611C189.147 239.627 190.551 241.044 189.731 242.021C177.909 256.195 170.503 273.525 168.429 291.865C166.929 305.88 168.604 320.053 173.33 333.331C178.057 346.61 185.713 358.654 195.731 368.569C196.646 369.471 195.236 370.881 194.321 369.979V369.979Z" fill="#E6E6E6"/>
<path d="M185.344 244.985C186.151 244.683 186.942 244.338 187.712 243.951C187.751 244.011 187.789 244.073 187.828 244.132L185.344 244.985Z" fill="#E6E6E6"/>
<path d="M200.739 227.395C200.413 229.223 199.823 230.993 198.99 232.651C196.688 237.274 193.021 241.078 188.486 243.548C188.235 243.682 187.976 243.824 187.716 243.95C187.407 243.464 187.089 242.979 186.787 242.494C184.651 239.313 183.072 235.793 182.117 232.082C181.146 227.722 181.674 222.826 184.469 219.336C187.256 215.846 192.579 214.281 196.437 216.54C197.551 217.206 198.496 218.119 199.199 219.21C198.814 219.687 198.429 220.156 198.044 220.633C198.01 220.677 197.974 220.719 197.935 220.758C197.6 221.177 197.257 221.587 196.923 222.006C195.525 223.721 194.136 225.445 192.738 227.153C194.708 227.515 196.713 227.653 198.714 227.563C198.873 227.554 199.04 227.546 199.199 227.538C199.71 227.504 200.228 227.462 200.739 227.395Z" fill="#E6E6E6"/>
<path d="M172.509 261.718L171.973 268.698L171.831 270.589C171.681 270.514 171.522 270.439 171.371 270.363C166.165 267.779 161.571 264.114 157.895 259.613C154.219 255.111 151.546 249.877 150.054 244.26C149.556 242.311 149.206 240.327 149.008 238.326C151.72 237.907 154.44 237.48 157.151 237.062C154.956 234.206 152.206 231.823 149.067 230.057C149.783 223.072 152.307 216.394 156.39 210.682C157.093 222.382 169.346 229.823 173.831 240.644C175.208 244.031 175.803 247.684 175.575 251.332C175.346 254.98 174.298 258.53 172.509 261.718V261.718Z" fill="#E6E6E6"/>
<path d="M170.182 323.023C169.53 323.057 168.877 323.073 168.232 323.065C162.663 323.03 157.159 321.857 152.059 319.619C146.958 317.381 142.369 314.125 138.571 310.051C135.498 306.685 133.026 302.815 131.265 298.61C131.324 298.602 131.374 298.593 131.432 298.585C134.144 298.166 136.864 297.739 139.576 297.321C136.696 293.568 132.868 290.651 128.486 288.868C127.894 285.086 127.849 281.239 128.353 277.444C134.479 287.428 148.799 288.232 157.846 295.664C162.161 299.26 165.102 304.236 166.173 309.749C166.441 311.112 166.583 312.496 166.6 313.884C166.609 314.219 166.609 314.545 166.6 314.872L166.801 315.323L170.182 323.023Z" fill="#E6E6E6"/>
<path d="M197.098 334.581C195.366 336.707 193.633 338.85 191.901 340.975C194.031 341.367 196.201 341.496 198.362 341.36C196.443 348.235 192.758 354.487 187.674 359.497C187.197 359.965 186.704 360.426 186.201 360.861C186.101 360.953 185.992 361.045 185.892 361.137L185.44 359.857L185.431 359.848L182.87 352.759C179.621 349.493 177.371 345.367 176.384 340.867V340.85C175.784 338.216 175.645 335.497 175.974 332.815C177.405 321.19 187.231 310.737 184.787 299.279C190.172 303.64 194.35 309.308 196.922 315.742C195.525 317.458 194.135 319.182 192.738 320.889C194.708 321.251 196.713 321.389 198.714 321.299C199.414 324.132 199.796 327.035 199.852 329.953C199.86 330.371 199.86 330.782 199.852 331.2C198.973 332.288 198.086 333.368 197.207 334.456C197.173 334.5 197.137 334.541 197.098 334.581V334.581Z" fill="#E6E6E6"/>
</g>
<defs>
<clipPath id="clip0_240_170">
<rect width="979" height="473" fill="white"/>
</clipPath>
</defs>
</svg>
