<svg width="421" height="230" viewBox="0 0 421 230" fill="none" xmlns="http://www.w3.org/2000/svg">
<g clip-path="url(#clip0_242_1975)">
<path d="M365.456 228.493C365.496 228.372 369.397 216.287 362.492 205.503L361.788 205.955C368.471 216.394 364.7 228.111 364.661 228.228L365.456 228.493Z" fill="#E4E4E4"/>
<path d="M357.556 207.053C357.705 207.76 357.991 208.43 358.398 209.025C358.806 209.621 359.326 210.13 359.93 210.524C360.534 210.918 361.21 211.189 361.919 211.322C362.627 211.455 363.355 211.446 364.061 211.297C364.766 211.149 365.435 210.862 366.03 210.454C366.625 210.046 367.134 209.525 367.527 208.92C367.921 208.315 368.192 207.639 368.324 206.929C368.457 206.22 368.448 205.491 368.3 204.785C367.674 201.814 362.37 194.422 359.403 195.048C356.436 195.675 356.93 204.083 357.556 207.053Z" fill="#E4E4E4"/>
<path d="M358.556 220.946C361.204 223.81 365.941 223.733 365.941 223.733C365.941 223.733 366.385 219.01 363.737 216.146C361.089 213.281 356.352 213.359 356.352 213.359C356.352 213.359 355.908 218.081 358.556 220.946Z" fill="#E4E4E4"/>
<path d="M398.688 229.33C398.783 229.045 407.989 200.525 391.695 175.076L390.032 176.144C405.804 200.779 396.905 228.429 396.813 228.705L398.688 229.33Z" fill="#E4E4E4"/>
<path d="M380.044 178.736C380.754 182.102 382.77 185.047 385.648 186.925C388.527 188.802 392.033 189.458 395.394 188.749C398.756 188.039 401.698 186.021 403.575 183.14C405.451 180.258 406.107 176.748 405.399 173.383C403.922 166.373 391.404 148.926 384.403 150.405C377.401 151.883 378.568 171.726 380.044 178.736Z" fill="#E4E4E4"/>
<path d="M382.405 211.522C388.653 218.283 399.832 218.1 399.832 218.1C399.832 218.1 400.88 206.955 394.631 200.195C388.382 193.434 377.204 193.618 377.204 193.618C377.204 193.618 376.156 204.762 382.405 211.522Z" fill="#E4E4E4"/>
<path d="M242.869 227.183L236.76 224.608L232.569 193.944H176.758L172.216 224.482L166.75 227.219C166.488 227.35 166.278 227.565 166.155 227.83C166.031 228.095 166 228.395 166.067 228.679C166.134 228.964 166.295 229.218 166.525 229.4C166.754 229.582 167.038 229.68 167.33 229.68H242.366C242.666 229.68 242.956 229.577 243.188 229.387C243.42 229.197 243.579 228.932 243.638 228.638C243.698 228.344 243.653 228.038 243.513 227.773C243.373 227.508 243.146 227.3 242.869 227.183Z" fill="#E6E6E6"/>
<path d="M342.049 198.024H67.8911C66.4527 198.02 65.0742 197.446 64.0583 196.427C63.0423 195.407 62.4717 194.026 62.4717 192.585V153.879H347.469V192.585C347.469 194.026 346.898 195.407 345.882 196.426C344.866 197.446 343.488 198.02 342.049 198.024Z" fill="#CCCCCC"/>
<path d="M347.755 172.173H62.2212V6.55554C62.2232 4.81748 62.9137 3.15118 64.1412 1.92221C65.3688 0.693235 67.0331 0.00194812 68.7691 0H341.207C342.943 0.00194698 344.607 0.69323 345.835 1.9222C347.062 3.15117 347.753 4.81747 347.755 6.55554V172.173Z" fill="#3F3D56"/>
<path d="M330.703 12.0205H79.2744C77.9362 12.0222 76.6533 12.5555 75.7074 13.5033C74.7616 14.4511 74.23 15.7359 74.2295 17.0758V155.098C74.23 156.438 74.7616 157.723 75.7074 158.671C76.6533 159.618 77.9362 160.152 79.2744 160.153H330.703C332.041 160.151 333.324 159.617 334.269 158.67C335.215 157.722 335.747 156.438 335.748 155.098V17.0758C335.747 15.7361 335.215 14.4517 334.269 13.504C333.324 12.5564 332.041 12.0229 330.703 12.0205Z" fill="white"/>
<path d="M123.842 12.0205V160.153H79.2744C77.9362 160.152 76.6533 159.618 75.7074 158.671C74.7616 157.723 74.23 156.438 74.2295 155.098V17.0758C74.23 15.7359 74.7616 14.4511 75.7074 13.5033C76.6533 12.5555 77.9362 12.0222 79.2744 12.0205H123.842Z" fill="#F0F0F0"/>
<path d="M87.0742 86.8516C86.5725 86.7372 86.0519 86.7344 85.549 86.8433C85.0461 86.9522 84.5732 87.1702 84.1636 87.4818C83.7539 87.7935 83.4175 88.1913 83.178 88.6473C82.9386 89.1032 82.8018 89.6062 82.7775 90.1207L70.7812 93.6617L75.7474 97.8592L86.3779 93.8531C87.244 93.8367 88.074 93.5028 88.7107 92.9147C89.3474 92.3265 89.7464 91.525 89.8322 90.662C89.9181 89.7989 89.6847 88.9343 89.1764 88.2321C88.6681 87.5298 87.9201 87.0386 87.0742 86.8516H87.0742Z" fill="#FFB6B6"/>
<path d="M38.6034 113.501C37.4175 113.5 36.2706 113.077 35.3673 112.307C34.4641 111.538 33.8631 110.472 33.6716 109.3C33.4801 108.128 33.7106 106.927 34.3218 105.909C34.9331 104.892 35.8855 104.124 37.0091 103.745L61.3188 95.5287L80.2815 88.6123L82.6085 96.7674L65.8684 107.811L39.6497 113.391C39.3058 113.464 38.9551 113.501 38.6034 113.501Z" fill="#00909A"/>
<path d="M53.8163 225.849H57.2293L58.8533 212.668H53.8154L53.8163 225.849Z" fill="#FFB6B6"/>
<path d="M52.9458 224.734L59.6676 224.733H59.6679C60.804 224.733 61.8935 225.185 62.6968 225.99C63.5002 226.794 63.9515 227.885 63.9516 229.022V229.162L52.946 229.162L52.9458 224.734Z" fill="#2F2E41"/>
<path d="M27.6459 225.849H31.0589L32.683 212.668H27.6455L27.6459 225.849Z" fill="#FFB6B6"/>
<path d="M26.7754 224.734L33.4972 224.733H33.4975C34.6336 224.733 35.7231 225.185 36.5264 225.99C37.3298 226.794 37.7811 227.885 37.7812 229.022V229.162L26.7756 229.162L26.7754 224.734Z" fill="#2F2E41"/>
<path d="M27.6124 146.786C26.0504 150.429 25.7086 154.48 26.638 158.334L25.6636 223.719H33.1597L37.3566 187.761L44.3168 164.068L51.8337 182.465V220.808L59.0723 220.374L62.97 179.678L58.5155 150.689L27.6124 146.786Z" fill="#2F2E41"/>
<path d="M55.0351 95.9152L48.6318 93.964L46.9614 90.6191H38.7363L36.6603 94.2428C36.6603 94.2428 28.3081 97.309 28.0297 112.082C27.7513 126.856 26.6377 150.549 26.6377 150.549L59.5707 155.249L55.0351 95.9152Z" fill="#00909A"/>
<path d="M64.4899 152.603C64.706 152.136 64.817 151.627 64.8151 151.112C64.8133 150.596 64.6987 150.088 64.4794 149.622C64.26 149.156 63.9413 148.744 63.5457 148.415C63.15 148.085 62.6871 147.847 62.1894 147.716L61.2241 135.231L56.0908 139.222L57.7945 150.466C57.6304 151.318 57.7841 152.2 58.2263 152.946C58.6685 153.691 59.3686 154.249 60.1939 154.512C61.0192 154.776 61.9124 154.727 62.7042 154.375C63.496 154.023 64.1314 153.393 64.49 152.603H64.4899Z" fill="#FFB6B6"/>
<path d="M55.7315 146.169L48.4224 127.479V100.642C48.4224 99.364 48.9104 98.1341 49.7866 97.2044C50.6628 96.2747 51.8608 95.7154 53.1354 95.6413C54.41 95.5671 55.6646 95.9835 56.6425 96.8053C57.6204 97.6272 58.2475 98.7922 58.3954 100.062L61.368 125.577L64.1826 145.586L55.7315 146.169Z" fill="#00909A"/>
<path d="M44.427 86.2802C48.9666 86.2802 52.6466 82.5957 52.6466 78.0507C52.6466 73.5057 48.9666 69.8213 44.427 69.8213C39.8875 69.8213 36.2075 73.5057 36.2075 78.0507C36.2075 82.5957 39.8875 86.2802 44.427 86.2802Z" fill="#FFB9B9"/>
<path d="M44.9651 75.5495C44.5805 76.0438 44.0533 76.49 43.9686 77.1108C43.9059 77.5708 44.1066 78.0254 44.1257 78.4892C44.1273 78.9573 43.9505 79.4084 43.6314 79.7506C43.3123 80.0927 42.8749 80.3002 42.4083 80.3306C42.0833 79.9212 41.6137 79.6523 41.0965 79.5795C40.839 79.5504 40.579 79.6046 40.3547 79.7344C40.1304 79.8641 39.9536 80.0625 39.8502 80.3004C39.6061 80.9908 40.1711 81.692 40.262 82.4187C40.274 82.9562 40.1872 83.4914 40.0057 83.9974C39.7975 84.8311 39.7418 85.7133 39.3764 86.491C39.011 87.2686 38.1986 87.9375 37.3575 87.7657C36.6503 87.6211 36.1717 86.9353 35.974 86.2403C35.7762 85.5453 35.785 84.8084 35.6419 84.1C35.1768 81.7985 33.1981 80.0932 32.4217 77.8774C31.427 75.0381 32.622 71.7904 34.6816 69.5992C35.5142 68.6391 36.6012 67.9345 37.8168 67.5668C39.1003 67.2396 40.4572 67.4748 41.7742 67.3348C43.1827 67.1852 44.5065 66.6122 45.8753 66.248C47.2441 65.8838 48.7729 65.7467 50.0171 66.4242C50.8849 66.8967 51.5134 67.7115 52.3219 68.2797C53.2488 68.9262 54.3726 69.2274 55.4982 69.1309L54.1541 69.7191C54.6685 70.1918 55.2899 70.5325 55.9647 70.712C55.4155 71.1479 54.736 71.3867 54.0352 71.3902C54.1813 71.6539 54.38 71.8848 54.6188 72.0687C54.8576 72.2525 55.1315 72.3854 55.4236 72.4591C54.403 72.9388 53.3195 73.4302 52.1972 73.322C51.6475 73.2691 51.1221 73.0734 50.5791 72.9727C49.4216 72.7581 48.233 72.9805 47.0769 73.2026C46.4698 73.3192 45.7247 73.4311 45.4182 74.0155C45.1629 74.5022 45.3581 75.0444 44.9651 75.5495Z" fill="#2F2E41"/>
<path d="M99.0356 99.2152C106.278 99.2152 112.148 93.3373 112.148 86.0866C112.148 78.8359 106.278 72.958 99.0356 72.958C91.7936 72.958 85.9229 78.8359 85.9229 86.0866C85.9229 93.3373 91.7936 99.2152 99.0356 99.2152Z" fill="#00909A"/>
<path d="M210.699 29.3457C210.294 29.3461 209.906 29.5072 209.621 29.7934C209.335 30.0797 209.174 30.4679 209.173 30.8728V56.4417C209.174 56.8466 209.335 57.2348 209.621 57.5211C209.906 57.8074 210.294 57.9685 210.699 57.9689H313.651C314.055 57.9685 314.443 57.8074 314.729 57.5211C315.015 57.2348 315.176 56.8466 315.176 56.4417V30.8728C315.176 30.4679 315.015 30.0797 314.729 29.7934C314.443 29.5072 314.055 29.3461 313.651 29.3457H210.699Z" fill="white"/>
<path d="M210.699 29.3457C210.294 29.3461 209.906 29.5072 209.621 29.7934C209.335 30.0797 209.174 30.4679 209.173 30.8728V56.4417C209.174 56.8466 209.335 57.2348 209.621 57.5211C209.906 57.8074 210.294 57.9685 210.699 57.9689H313.651C314.055 57.9685 314.443 57.8074 314.729 57.5211C315.015 57.2348 315.176 56.8466 315.176 56.4417V30.8728C315.176 30.4679 315.015 30.0797 314.729 29.7934C314.443 29.5072 314.055 29.3461 313.651 29.3457H210.699Z" fill="#E6E6E6"/>
<path d="M210.889 56.2507H313.46V31.0635H210.889V56.2507Z" fill="white"/>
<path d="M222.551 38.3125C222.197 38.3125 221.858 38.4533 221.608 38.7039C221.357 38.9544 221.217 39.2943 221.217 39.6487C221.217 40.0031 221.357 40.3429 221.608 40.5935C221.858 40.8441 222.197 40.9849 222.551 40.9849H301.795C301.97 40.9849 302.144 40.9505 302.306 40.8834C302.468 40.8163 302.615 40.7179 302.739 40.5939C302.863 40.4699 302.961 40.3226 303.028 40.1605C303.095 39.9985 303.13 39.8247 303.13 39.6493C303.13 39.4738 303.096 39.3 303.029 39.1379C302.962 38.9757 302.863 38.8284 302.739 38.7043C302.616 38.5801 302.469 38.4816 302.307 38.4144C302.145 38.3472 301.971 38.3126 301.796 38.3125H222.551Z" fill="#E4E4E4"/>
<path d="M222.551 46.3301C222.197 46.3307 221.859 46.4717 221.609 46.7223C221.359 46.9728 221.219 47.3123 221.219 47.6663C221.219 48.0202 221.359 48.3597 221.609 48.6102C221.859 48.8607 222.197 49.0018 222.551 49.0024H301.794C302.148 49.0032 302.488 48.8632 302.739 48.6132C302.99 48.3632 303.131 48.0236 303.132 47.6692C303.133 47.3149 302.993 46.9747 302.743 46.7235C302.493 46.4724 302.154 46.3309 301.8 46.3301H222.551Z" fill="#E4E4E4"/>
<path d="M139.106 72.7305C138.701 72.7309 138.314 72.8919 138.028 73.1782C137.742 73.4645 137.581 73.8527 137.581 74.2575V99.8264C137.581 100.231 137.742 100.62 138.028 100.906C138.314 101.192 138.701 101.353 139.106 101.354H242.058C242.463 101.353 242.85 101.192 243.136 100.906C243.422 100.62 243.583 100.231 243.583 99.8264V74.2575C243.583 73.8527 243.422 73.4645 243.136 73.1782C242.85 72.8919 242.463 72.7309 242.058 72.7305H139.106Z" fill="white"/>
<path d="M139.106 72.7305C138.701 72.7309 138.314 72.8919 138.028 73.1782C137.742 73.4645 137.581 73.8527 137.581 74.2575V99.8264C137.581 100.231 137.742 100.62 138.028 100.906C138.314 101.192 138.701 101.353 139.106 101.354H242.058C242.463 101.353 242.85 101.192 243.136 100.906C243.422 100.62 243.583 100.231 243.583 99.8264V74.2575C243.583 73.8527 243.422 73.4645 243.136 73.1782C242.85 72.8919 242.463 72.7309 242.058 72.7305H139.106Z" fill="#E6E6E6"/>
<path d="M139.296 99.6354H241.867V74.4482H139.296V99.6354Z" fill="white"/>
<path d="M150.959 81.6973C150.605 81.6973 150.265 81.838 150.015 82.0886C149.765 82.3392 149.624 82.6791 149.624 83.0334C149.624 83.3878 149.765 83.7277 150.015 83.9783C150.265 84.2288 150.605 84.3696 150.959 84.3696H230.202C230.377 84.3697 230.551 84.3352 230.713 84.2681C230.875 84.2011 231.022 84.1027 231.146 83.9787C231.27 83.8547 231.368 83.7074 231.435 83.5453C231.503 83.3832 231.537 83.2095 231.537 83.034C231.537 82.8585 231.503 82.6848 231.436 82.5226C231.369 82.3605 231.271 82.2132 231.147 82.089C231.023 81.9649 230.876 81.8664 230.714 81.7992C230.552 81.732 230.378 81.6973 230.203 81.6973H150.959Z" fill="#E4E4E4"/>
<path d="M150.958 89.7148C150.605 89.7155 150.266 89.8565 150.016 90.107C149.766 90.3575 149.626 90.6971 149.626 91.051C149.626 91.405 149.766 91.7445 150.016 91.995C150.266 92.2455 150.605 92.3866 150.958 92.3872H230.202C230.556 92.388 230.895 92.248 231.146 91.9979C231.397 91.7479 231.538 91.4084 231.539 91.054C231.54 90.6996 231.4 90.3594 231.15 90.1083C230.901 89.8572 230.562 89.7156 230.208 89.7148H150.958Z" fill="#E4E4E4"/>
<path d="M264.597 141.356C265.055 141.305 265.497 141.154 265.891 140.914C266.285 140.674 266.622 140.351 266.878 139.966C267.133 139.582 267.302 139.146 267.371 138.689C267.44 138.233 267.408 137.767 267.278 137.324L276.402 130.798L270.965 128.702L263.134 135.22C262.405 135.488 261.8 136.015 261.433 136.7C261.066 137.386 260.963 138.182 261.143 138.938C261.324 139.695 261.775 140.358 262.411 140.804C263.048 141.249 263.825 141.446 264.597 141.356Z" fill="#FFB7B7"/>
<path d="M269.663 137.058L266.636 131.882L266.7 131.808L278.912 117.888L288.395 101.698L296.628 102.749L296.75 105.241L296.725 105.278L283.644 124.967L283.63 124.979L269.663 137.058Z" fill="#3F3D56"/>
<path d="M310.012 224.643L305.356 224.642L303.141 206.66L310.013 206.661L310.012 224.643Z" fill="#FFB7B7"/>
<path d="M311.2 229.162L296.186 229.161V228.971C296.186 227.419 296.801 225.931 297.897 224.834C298.993 223.737 300.48 223.12 302.03 223.12H302.03L311.2 223.121L311.2 229.162Z" fill="#2F2E41"/>
<path d="M269.937 224.49L265.408 223.407L267.425 205.401L274.109 206.999L269.937 224.49Z" fill="#FFB7B7"/>
<path d="M270.044 229.162L255.44 225.67L255.485 225.485C255.845 223.976 256.789 222.672 258.109 221.859C259.43 221.047 261.018 220.793 262.526 221.153L262.526 221.153L271.446 223.286L270.044 229.162Z" fill="#2F2E41"/>
<path d="M288.034 93.4773V85.6298C288.034 82.8409 289.141 80.1662 291.11 78.1942C293.08 76.2221 295.752 75.1143 298.537 75.1143C301.323 75.1143 303.994 76.2221 305.964 78.1942C307.933 80.1662 309.04 82.8409 309.04 85.6298V93.4773C309.04 93.8518 308.891 94.2108 308.626 94.4757C308.362 94.7405 308.003 94.8894 307.629 94.8898H289.445C289.071 94.8894 288.712 94.7405 288.448 94.4757C288.183 94.2108 288.035 93.8518 288.034 93.4773Z" fill="#2F2E41"/>
<path d="M295.945 94.7699C300.198 94.7699 303.645 91.3182 303.645 87.0602C303.645 82.8023 300.198 79.3506 295.945 79.3506C291.692 79.3506 288.245 82.8023 288.245 87.0602C288.245 91.3182 291.692 94.7699 295.945 94.7699Z" fill="#FFB7B7"/>
<path d="M285.55 86.2577C285.552 84.0524 286.428 81.938 287.986 80.3786C289.544 78.8191 291.655 77.9419 293.858 77.9395H295.426C297.628 77.9419 299.74 78.8191 301.298 80.3786C302.855 81.938 303.731 84.0524 303.734 86.2577V86.4147H300.421L299.291 83.2469L299.065 86.4147H297.353L296.783 84.8164L296.669 86.4147H285.55V86.2577Z" fill="#2F2E41"/>
<path d="M300.437 127.751L280.83 127.004L279.734 114.162C278.889 111.811 278.875 109.793 279.694 108.163C280.397 106.825 281.58 105.801 283.005 105.298L287.295 100.11C287.847 99.4434 288.54 98.9076 289.324 98.5416C290.108 98.1757 290.964 97.9888 291.829 97.9944L302.975 98.0707C303.244 97.9088 304.874 97.0796 308.088 98.4746C311.574 99.9878 310.764 105.243 310.756 105.296L310.748 105.345L310.71 105.378L303.295 111.629L300.437 127.751Z" fill="#3F3D56"/>
<path d="M280.987 125.625L271.713 142.554L264.682 219.572L272.626 222.001L286.688 161.753L303.008 220.292L312.53 220.53L306.046 152.976L300.38 126.821L280.987 125.625Z" fill="#2F2E41"/>
<path d="M220.965 113.076C220.58 112.952 220.161 112.985 219.801 113.169C219.441 113.353 219.168 113.673 219.043 114.058L211.168 138.381C211.044 138.766 211.077 139.185 211.261 139.545C211.445 139.906 211.764 140.179 212.149 140.304L310.084 172.09C310.469 172.214 310.887 172.181 311.247 171.997C311.607 171.813 311.88 171.493 312.005 171.108L319.88 146.785C320.005 146.4 319.971 145.981 319.787 145.62C319.603 145.26 319.284 144.987 318.9 144.862L220.965 113.076Z" fill="white"/>
<path d="M220.965 113.076C220.58 112.952 220.161 112.985 219.801 113.169C219.441 113.353 219.168 113.673 219.043 114.058L211.168 138.381C211.044 138.766 211.077 139.185 211.261 139.545C211.445 139.906 211.764 140.179 212.149 140.304L310.084 172.09C310.469 172.214 310.887 172.181 311.247 171.997C311.607 171.813 311.88 171.493 312.005 171.108L319.88 146.785C320.005 146.4 319.971 145.981 319.787 145.62C319.603 145.26 319.284 144.987 318.9 144.862L220.965 113.076Z" fill="#E6E6E6"/>
<path d="M212.859 138.729L310.431 170.397L318.189 146.437L220.616 114.77L212.859 138.729Z" fill="white"/>
<path d="M229.478 125.265C229.141 125.156 228.775 125.185 228.46 125.346C228.145 125.508 227.907 125.787 227.797 126.124C227.688 126.461 227.717 126.828 227.878 127.143C228.039 127.459 228.318 127.698 228.655 127.807L304.036 152.273C304.203 152.327 304.379 152.348 304.554 152.335C304.729 152.321 304.899 152.273 305.056 152.193C305.212 152.114 305.351 152.004 305.465 151.87C305.579 151.737 305.665 151.582 305.719 151.415C305.774 151.248 305.794 151.072 305.78 150.897C305.767 150.722 305.718 150.551 305.639 150.395C305.559 150.239 305.449 150.1 305.316 149.986C305.182 149.872 305.028 149.785 304.861 149.731L304.86 149.731L229.478 125.265Z" fill="#00909A"/>
<path d="M227.009 132.891C226.672 132.783 226.306 132.813 225.992 132.974C225.677 133.135 225.439 133.415 225.33 133.751C225.221 134.088 225.25 134.454 225.41 134.77C225.571 135.085 225.85 135.324 226.186 135.434L301.567 159.899C301.904 160.009 302.27 159.981 302.586 159.821C302.901 159.66 303.14 159.381 303.25 159.044C303.36 158.707 303.332 158.34 303.172 158.024C303.011 157.708 302.732 157.469 302.396 157.359L302.39 157.357L227.009 132.891Z" fill="#00909A"/>
<path d="M305.764 153.032C306.107 152.723 306.378 152.343 306.559 151.918C306.74 151.493 306.825 151.034 306.809 150.572C306.794 150.111 306.677 149.658 306.468 149.247C306.258 148.835 305.961 148.474 305.598 148.19L309.218 137.565L303.579 139.032L301.005 148.897C300.569 149.54 300.383 150.321 300.484 151.092C300.584 151.863 300.964 152.571 301.55 153.08C302.137 153.59 302.89 153.867 303.666 153.858C304.443 153.849 305.189 153.555 305.764 153.031V153.032Z" fill="#FFB7B7"/>
<path d="M307.381 146.584L301.91 144.142L303.748 125.608L302.037 106.919L309.342 102.971L310.89 104.925L310.891 104.97L311.712 128.603L311.708 128.621L307.381 146.584Z" fill="#3F3D56"/>
<path d="M420.361 230H134.221C134.076 230.003 133.934 229.958 133.818 229.872C133.701 229.786 133.616 229.664 133.576 229.524C133.551 229.43 133.548 229.33 133.568 229.234C133.587 229.138 133.628 229.048 133.688 228.97C133.748 228.892 133.825 228.829 133.912 228.786C134 228.743 134.097 228.72 134.195 228.72H420.308C420.461 228.715 420.611 228.761 420.734 228.852C420.857 228.943 420.945 229.073 420.985 229.22C421.006 229.314 421.005 229.411 420.983 229.505C420.962 229.598 420.919 229.685 420.859 229.76C420.8 229.835 420.724 229.895 420.637 229.937C420.551 229.978 420.456 230 420.361 230Z" fill="#CCCCCC"/>
<path d="M96.3097 230H0.665036C0.520314 230.003 0.378639 229.958 0.262087 229.872C0.145535 229.786 0.0606514 229.664 0.0206625 229.524C-0.00430307 229.43 -0.00720891 229.33 0.0121659 229.234C0.0315407 229.138 0.0726782 229.048 0.132418 228.97C0.192158 228.892 0.268905 228.829 0.356754 228.786C0.444602 228.743 0.541211 228.72 0.639144 228.72H96.2573C96.41 228.715 96.56 228.761 96.6828 228.852C96.8057 228.943 96.8942 229.073 96.934 229.22C96.9547 229.314 96.9542 229.411 96.9324 229.505C96.9107 229.598 96.8683 229.685 96.8084 229.76C96.7485 229.835 96.6726 229.895 96.5863 229.937C96.5 229.978 96.4055 230 96.3097 230Z" fill="#CCCCCC"/>
<path d="M96.9875 93.8892C96.7305 93.8892 96.4771 93.8293 96.2473 93.7142C96.0175 93.5992 95.8176 93.4321 95.6635 93.2264L91.6042 87.8085C91.4731 87.6345 91.3776 87.4364 91.3231 87.2253C91.2687 87.0143 91.2563 86.7946 91.2868 86.5788C91.3173 86.363 91.3901 86.1554 91.5009 85.9678C91.6117 85.7802 91.7584 85.6163 91.9326 85.4855C92.1068 85.3548 92.305 85.2597 92.516 85.2058C92.7269 85.1518 92.9465 85.1401 93.162 85.1712C93.3775 85.2023 93.5847 85.2757 93.7718 85.3871C93.9589 85.4986 94.1223 85.6459 94.2524 85.8206L96.9081 89.3648L103.729 79.1235C103.973 78.7579 104.351 78.5041 104.782 78.4179C105.212 78.3317 105.659 78.4203 106.024 78.664C106.39 78.9077 106.643 79.2867 106.729 79.7176C106.815 80.1485 106.727 80.5959 106.483 80.9615L98.3648 93.1514C98.2179 93.3719 98.0204 93.5539 97.7887 93.6821C97.5571 93.8104 97.2981 93.8812 97.0335 93.8887C97.0182 93.8889 97.0028 93.8892 96.9875 93.8892Z" fill="white"/>
</g>
<defs>
<clipPath id="clip0_242_1975">
<rect width="421" height="230" fill="white"/>
</clipPath>
</defs>
</svg>
