<svg width="248" height="217" viewBox="0 0 248 217" fill="none" xmlns="http://www.w3.org/2000/svg">
<g clip-path="url(#clip0_242_1627)">
<path d="M11.9666 73.9468L0.00864984 67.2131C-0.15265 60.0088 1.4475 52.874 4.67016 46.4282C7.42712 58.9386 21.9361 64.8906 28.6303 75.8138C30.6921 79.2366 31.957 83.0794 32.3313 87.0574C32.7057 91.0354 32.1798 95.0466 30.7928 98.7938L31.5793 108.494C25.399 106.643 19.6935 103.475 14.8558 99.2071C10.0182 94.9396 6.16343 89.6743 3.55714 83.774C2.12781 80.4494 1.12293 76.9581 0.566212 73.3825C6.14152 73.9757 11.9666 73.9468 11.9666 73.9468Z" fill="#F2F2F2"/>
<path d="M226.93 196.451L227.297 188.208C231.119 186.165 235.383 185.086 239.717 185.064C233.752 189.94 234.497 199.339 230.453 205.896C229.176 207.932 227.457 209.654 225.424 210.935C223.391 212.215 221.096 213.023 218.708 213.296L213.716 216.352C213.031 212.534 213.182 208.613 214.159 204.859C215.135 201.106 216.914 197.608 219.373 194.608C220.769 192.939 222.37 191.452 224.138 190.182C225.333 193.334 226.93 196.451 226.93 196.451Z" fill="#F2F2F2"/>
<path d="M214.069 212.11L209.548 212.109L207.398 194.679L214.069 194.679L214.069 212.11Z" fill="#FFB6B6"/>
<path d="M215.221 216.49L200.646 216.49V216.305C200.647 214.801 201.244 213.359 202.308 212.295C203.372 211.232 204.815 210.634 206.319 210.634H206.32L208.982 208.615L213.949 210.634L215.221 210.634L215.221 216.49Z" fill="#2F2E41"/>
<path d="M193.069 212.11L188.549 212.109L186.398 194.679L193.07 194.679L193.069 212.11Z" fill="#FFB6B6"/>
<path d="M194.222 216.49L179.647 216.49V216.305C179.647 214.801 180.245 213.359 181.309 212.295C182.372 211.232 183.815 210.634 185.32 210.634H185.32L187.982 208.615L192.95 210.634L194.222 210.634L194.222 216.49Z" fill="#2F2E41"/>
<path d="M191.112 116.815L220.513 117.55C226.096 120.582 226.181 127.145 224.352 134.936C224.352 134.936 224.969 139.568 223.734 140.803C222.499 142.038 221.881 142.038 222.499 144.199C223.116 146.36 219.853 149.89 220.25 150.286C220.646 150.682 221.572 152.844 221.572 152.844L218.484 170.442C218.484 170.442 216.323 201.008 215.705 201.625C215.087 202.243 214.47 201.625 215.087 203.169C215.705 204.713 216.323 204.095 215.705 204.713C215.158 205.303 214.642 205.921 214.161 206.565H206.695C206.695 206.565 206.132 203.478 206.132 203.169C206.132 202.86 205.514 201.008 205.514 200.699C205.514 200.39 206.06 199.845 206.06 199.845C206.249 199.217 206.376 198.573 206.44 197.92C206.44 197.303 208.293 173.53 208.293 173.53L204.588 142.655L195.632 172.912C195.632 172.912 195.632 199.464 195.014 200.082C194.397 200.699 194.397 200.39 194.706 201.625C195.014 202.86 196.25 202.552 195.323 203.478C194.397 204.404 194.088 202.86 194.397 204.404L194.706 205.948L185.441 206.08C185.441 206.08 184.206 203.478 184.823 202.552C185.441 201.625 185.404 201.878 184.65 200.362C183.897 198.847 183.588 198.538 183.897 198.229C184.206 197.92 184.206 196.278 184.206 196.278L185.75 166.737C185.75 166.737 186.059 135.554 186.059 134.628C186.082 134.151 185.994 133.676 185.802 133.239V131.981L186.985 127.526L191.112 116.815Z" fill="#2F2E41"/>
<path d="M208.774 55.6954C213.819 55.6954 217.908 51.6065 217.908 46.5625C217.908 41.5186 213.819 37.4297 208.774 37.4297C203.729 37.4297 199.639 41.5186 199.639 46.5625C199.639 51.6065 203.729 55.6954 208.774 55.6954Z" fill="#FFB6B6"/>
<path d="M204.206 61.7313C202.238 62.9011 201.061 65.0503 200.385 67.2372C199.134 71.2862 198.381 75.4725 198.142 79.7035L197.429 92.3706L188.588 119.342C196.25 125.824 225.048 120.815 225.048 120.815C225.048 120.815 225.932 120.521 225.048 119.637C224.164 118.753 223.304 119.536 224.188 118.652C225.072 117.768 224.462 118.753 224.168 117.869C223.873 116.985 224.168 117.575 224.462 117.28C224.757 116.985 222.181 114.334 222.181 114.334L224.539 98.8519L227.485 67.6235C223.949 63.2043 216.838 60.5993 216.838 60.5993L215 57.2925L205.813 58.0273L204.206 61.7313Z" fill="#E6E6E6"/>
<path d="M202.954 41.2027C203.307 41.2054 203.659 41.2516 204.001 41.3401C204.676 41.5022 205.361 41.6171 206.051 41.6838C208.166 41.8827 210.153 42.7844 211.695 44.2448C213.237 45.7053 214.245 47.6402 214.558 49.7406C215.089 49.2779 216.297 48.4268 217.287 49.2178C217.302 49.2304 217.311 49.2368 217.346 49.2203C218.003 48.9085 219.17 45.0703 219.206 41.6908C219.224 39.8971 218.942 37.6066 217.491 36.8813L217.414 36.8431L217.394 36.76C217.297 36.3565 216.214 35.6678 214.332 35.1317C210.911 34.1576 205.812 32.2598 202.94 35.0527C202.723 35.9942 202.016 38.009 201.302 38.2374C200.511 38.4902 199.828 38.7084 199.72 39.6782C199.63 41.0584 199.637 42.4432 199.74 43.8225C200.008 42.9785 200.534 42.2398 201.244 41.7104C201.748 41.3706 202.345 41.1934 202.954 41.2027Z" fill="#2F2E41"/>
<path d="M185.951 91.6653L200.872 82.1111L193.357 72.1226L185.935 81.2494L162.812 82.6672C162.204 82.0662 161.434 81.655 160.596 81.4839C159.759 81.3128 158.889 81.3891 158.094 81.7035C157.298 82.0179 156.612 82.5569 156.118 83.2547C155.624 83.9525 155.343 84.779 155.311 85.6333C155.278 86.4877 155.495 87.3331 155.935 88.0663C156.375 88.7996 157.018 89.3891 157.788 89.7629C158.557 90.1367 159.418 90.2788 160.266 90.1717C161.115 90.0646 161.914 89.713 162.566 89.1598L185.951 91.6653Z" fill="#FFB6B6"/>
<path d="M214.722 68.7754C215.588 74.0155 199.234 84.0218 199.234 84.0218C199.233 82.7919 189.472 92.077 189.031 91.057C187.779 88.1579 186.899 81.2913 185.149 80.1922C184.148 79.5637 191.176 73.6591 191.176 73.6591C191.176 73.6591 194.854 69.9541 199.682 65.2807C201.022 63.9342 202.681 62.9486 204.505 62.4156C206.329 61.8826 208.258 61.8197 210.112 62.2325C210.112 62.2325 213.856 63.5354 214.722 68.7754Z" fill="#E6E6E6"/>
<path d="M245.479 94.1734L235.609 79.4604L225.779 87.1843L235.063 94.409L236.971 117.492C236.383 118.112 235.988 118.891 235.834 119.732C235.681 120.573 235.776 121.44 236.107 122.229C236.438 123.017 236.992 123.692 237.7 124.171C238.408 124.65 239.241 124.913 240.096 124.927C240.951 124.941 241.792 124.707 242.515 124.252C243.239 123.797 243.815 123.141 244.173 122.364C244.53 121.587 244.654 120.723 244.529 119.878C244.404 119.032 244.036 118.241 243.469 117.601L245.479 94.1734Z" fill="#FFB6B6"/>
<path d="M221.979 65.8995C227.201 64.9229 237.553 81.0585 237.553 81.0585C236.324 81.0848 245.815 90.6452 244.805 91.1072C241.932 92.4203 235.084 93.4458 234.022 95.2181C233.415 96.2316 227.361 89.3323 227.361 89.3323C227.361 89.3323 223.578 85.7338 218.803 81.0076C217.428 79.6965 216.407 78.0588 215.836 76.2472C215.264 74.4356 215.16 72.5088 215.534 70.6462C215.534 70.6462 216.757 66.8762 221.979 65.8995Z" fill="#E6E6E6"/>
<path d="M248 216.563C248 216.62 247.989 216.677 247.967 216.73C247.945 216.783 247.913 216.832 247.872 216.872C247.831 216.913 247.783 216.945 247.73 216.967C247.677 216.989 247.62 217 247.562 217H144.554C144.438 217 144.327 216.954 144.245 216.872C144.163 216.79 144.117 216.679 144.117 216.563C144.117 216.447 144.163 216.336 144.245 216.254C144.327 216.172 144.438 216.125 144.554 216.125H247.562C247.62 216.125 247.677 216.137 247.73 216.158C247.783 216.18 247.831 216.213 247.872 216.253C247.913 216.294 247.945 216.342 247.967 216.395C247.989 216.448 248 216.505 248 216.563Z" fill="#CCCCCC"/>
<path d="M152.575 84.064H27.5603C25.6071 84.0662 23.7346 84.8429 22.3535 86.2236C20.9724 87.6044 20.1956 89.4765 20.1934 91.4293V169.245C20.1956 171.198 20.9724 173.07 22.3535 174.451C23.7346 175.832 25.6072 176.608 27.5603 176.611H152.575C154.528 176.608 156.401 175.832 157.782 174.451C159.163 173.07 159.94 171.198 159.942 169.245V91.4293C159.94 89.4765 159.163 87.6044 157.782 86.2236C156.401 84.8428 154.528 84.0662 152.575 84.064Z" fill="#00909A"/>
<path d="M152.575 84.064H27.5603C25.6071 84.0662 23.7346 84.8429 22.3535 86.2236C20.9724 87.6044 20.1956 89.4765 20.1934 91.4293V169.245C20.1956 171.198 20.9724 173.07 22.3535 174.451C23.7346 175.832 25.6072 176.608 27.5603 176.611H152.575C154.528 176.608 156.401 175.832 157.782 174.451C159.163 173.07 159.94 171.198 159.942 169.245V91.4293C159.94 89.4765 159.163 87.6044 157.782 86.2236C156.401 84.8428 154.528 84.0662 152.575 84.064ZM154.993 139.96C154.963 147.882 151.828 155.477 146.262 161.115C140.696 166.754 133.141 169.986 125.218 170.12C112.533 170.285 132.236 170.349 116.937 170.349C81.9533 170.349 45.4748 170.015 31.8642 169.798C30.0735 169.761 28.3682 169.026 27.1123 167.749C25.8565 166.472 25.1496 164.755 25.1427 162.965V91.435C25.1434 90.7938 25.3981 90.1789 25.8511 89.7249C26.304 89.2709 26.9184 89.0148 27.5598 89.0125H152.57C153.211 89.0132 153.826 89.2678 154.28 89.7206C154.734 90.1734 154.99 90.7874 154.993 91.4286V139.96Z" fill="#3F3D56"/>
<path d="M137.185 39.2549H41.9373C41.0945 39.2561 40.2727 39.5173 39.584 40.0029C38.8953 40.4884 38.3732 41.1746 38.0891 41.9679L23.3787 83.2295C23.1592 83.8454 23.0907 84.5049 23.1791 85.1527C23.2675 85.8006 23.5101 86.4177 23.8866 86.9523C24.2631 87.4869 24.7625 87.9233 25.3427 88.2249C25.923 88.5264 26.5672 88.6843 27.2211 88.6853L154.964 88.9119H154.97C155.646 88.9119 156.312 88.7441 156.907 88.4237C157.502 88.1033 158.008 87.6401 158.381 87.0759C158.753 86.5116 158.979 85.8639 159.039 85.1907C159.099 84.5175 158.991 83.8399 158.725 83.2186L158.502 83.3139L158.725 83.2186L140.94 41.7303C140.626 40.9953 140.102 40.3688 139.435 39.9287C138.767 39.4886 137.985 39.2543 137.185 39.2549Z" fill="#3F3D56"/>
<path d="M159.056 84.1145C159.056 84.6678 158.943 85.2153 158.725 85.7239L140.942 117.66C140.625 118.394 140.101 119.019 139.433 119.458C138.766 119.897 137.985 120.132 137.186 120.133H41.9391C41.096 120.132 40.2738 119.871 39.5845 119.386C38.8952 118.901 38.3725 118.215 38.0876 117.422L23.38 85.7128C23.1997 85.2077 23.1208 84.6719 23.1477 84.1363C23.1747 83.6006 23.3069 83.0754 23.537 82.5909C23.767 82.1063 24.0903 81.6719 24.4884 81.3123C24.8865 80.9528 25.3515 80.6752 25.857 80.4954C26.2942 80.3376 26.7556 80.2568 27.2204 80.2566L42.8248 80.2272L49.1936 80.2162L133 80.0692L139.372 80.0582L154.966 80.0288H154.969C156.053 80.029 157.093 80.4595 157.859 81.2257C158.625 81.9919 159.056 83.031 159.056 84.1145Z" fill="#3F3D56"/>
<path d="M36.9321 142.435C38.8208 142.435 64.7575 144.019 64.7575 145.908C64.7575 147.796 38.8208 149.273 36.9321 149.273C36.0251 149.273 35.1552 148.913 34.5139 148.271C33.8725 147.63 33.5122 146.76 33.5122 145.854C33.5122 144.947 33.8725 144.077 34.5139 143.436C35.1552 142.795 36.0251 142.435 36.9321 142.435Z" fill="#3F3D56"/>
<path d="M131.254 14.1533H50.9429C48.7906 14.1558 46.7272 15.0117 45.2052 16.5333C43.6833 18.0549 42.8272 20.1179 42.8247 22.2697V120.133H137.186C137.96 120.135 138.72 119.915 139.372 119.497V22.2697C139.37 20.1179 138.514 18.0549 136.992 16.5333C135.47 15.0117 133.406 14.1558 131.254 14.1533Z" fill="#E6E6E6"/>
<path d="M100.601 20.7339H56.5881C54.6282 20.7358 52.7491 21.5148 51.363 22.8999C49.9768 24.2851 49.1967 26.1634 49.1938 28.1228V120.133H133V53.126C132.99 44.5381 129.573 36.3048 123.5 30.2323C117.426 24.1597 109.19 20.7438 100.601 20.7339Z" fill="white"/>
<path d="M118.722 111.961H63.4712C62.9936 111.961 62.5356 112.151 62.1978 112.489C61.8601 112.826 61.6704 113.284 61.6704 113.762C61.6704 114.239 61.8601 114.697 62.1978 115.035C62.5356 115.372 62.9936 115.562 63.4712 115.562H118.722C119.2 115.562 119.658 115.372 119.995 115.035C120.333 114.697 120.523 114.239 120.523 113.762C120.523 113.284 120.333 112.826 119.995 112.489C119.658 112.151 119.2 111.961 118.722 111.961Z" fill="#E4E4E4"/>
<path d="M118.722 104.841H63.4711C62.993 104.841 62.5345 105.031 62.1964 105.369C61.8584 105.707 61.6685 106.165 61.6685 106.643C61.6685 107.121 61.8584 107.579 62.1964 107.917C62.5345 108.255 62.993 108.445 63.4711 108.445H118.722C119.2 108.445 119.659 108.255 119.997 107.917C120.335 107.579 120.525 107.121 120.525 106.643C120.525 106.165 120.335 105.707 119.997 105.369C119.659 105.031 119.2 104.841 118.722 104.841Z" fill="#E4E4E4"/>
<path d="M87.4216 97.7241H63.4712C62.9936 97.7241 62.5356 97.9138 62.1978 98.2514C61.8601 98.5891 61.6704 99.047 61.6704 99.5245C61.6704 100.002 61.8601 100.46 62.1978 100.798C62.5356 101.135 62.9936 101.325 63.4712 101.325H87.4216C87.8992 101.325 88.3572 101.135 88.6949 100.798C89.0326 100.46 89.2223 100.002 89.2223 99.5245C89.2223 99.047 89.0326 98.5891 88.6949 98.2514C88.3572 97.9138 87.8992 97.7241 87.4216 97.7241Z" fill="#E4E4E4"/>
<path d="M118.722 82.814H63.4711C62.993 82.814 62.5345 83.0038 62.1964 83.3418C61.8584 83.6798 61.6685 84.1382 61.6685 84.6162C61.6685 85.0942 61.8584 85.5526 62.1964 85.8905C62.5345 86.2285 62.993 86.4184 63.4711 86.4184H118.722C119.2 86.4184 119.659 86.2285 119.997 85.8905C120.335 85.5526 120.525 85.0942 120.525 84.6162C120.525 84.1382 120.335 83.6798 119.997 83.3418C119.659 83.0038 119.2 82.814 118.722 82.814Z" fill="#E4E4E4"/>
<path d="M118.722 75.6968H63.4712C62.9936 75.6968 62.5356 75.8865 62.1978 76.2241C61.8601 76.5617 61.6704 77.0197 61.6704 77.4972C61.6704 77.9746 61.8601 78.4326 62.1978 78.7702C62.5356 79.1078 62.9936 79.2975 63.4712 79.2975H118.722C119.2 79.2975 119.658 79.1078 119.995 78.7702C120.333 78.4326 120.523 77.9746 120.523 77.4972C120.523 77.0197 120.333 76.5617 119.995 76.2241C119.658 75.8865 119.2 75.6968 118.722 75.6968Z" fill="#E4E4E4"/>
<path d="M87.4215 68.5762H63.4711C62.993 68.5762 62.5345 68.766 62.1964 69.104C61.8584 69.442 61.6685 69.9004 61.6685 70.3784C61.6685 70.8564 61.8584 71.3148 62.1964 71.6527C62.5345 71.9907 62.993 72.1806 63.4711 72.1806H87.4215C87.8996 72.1806 88.3581 71.9907 88.6961 71.6527C89.0342 71.3148 89.2241 70.8564 89.2241 70.3784C89.2241 69.9004 89.0342 69.442 88.6961 69.104C88.3581 68.766 87.8996 68.5762 87.4215 68.5762Z" fill="#E4E4E4"/>
<path d="M118.722 53.666H63.4711C62.993 53.666 62.5345 53.8559 62.1964 54.1939C61.8584 54.5319 61.6685 54.9903 61.6685 55.4682C61.6685 55.9462 61.8584 56.4046 62.1964 56.7426C62.5345 57.0806 62.993 57.2704 63.4711 57.2704H118.722C119.2 57.2704 119.659 57.0806 119.997 56.7426C120.335 56.4046 120.525 55.9462 120.525 55.4682C120.525 54.9903 120.335 54.5319 119.997 54.1939C119.659 53.8559 119.2 53.666 118.722 53.666Z" fill="#00909A"/>
<path d="M118.722 46.5493H63.4711C62.993 46.5493 62.5345 46.7392 62.1964 47.0772C61.8584 47.4152 61.6685 47.8736 61.6685 48.3515C61.6685 48.8295 61.8584 49.2879 62.1964 49.6259C62.5345 49.9639 62.993 50.1537 63.4711 50.1537H118.722C119.2 50.1537 119.659 49.9639 119.997 49.6259C120.335 49.2879 120.525 48.8295 120.525 48.3515C120.525 47.8736 120.335 47.4152 119.997 47.0772C119.659 46.7392 119.2 46.5493 118.722 46.5493Z" fill="#00909A"/>
<path d="M87.4215 39.4282H63.4711C62.993 39.4282 62.5345 39.6181 62.1964 39.9561C61.8584 40.2941 61.6685 40.7525 61.6685 41.2304C61.6685 41.7084 61.8584 42.1668 62.1964 42.5048C62.5345 42.8428 62.993 43.0327 63.4711 43.0327H87.4215C87.8996 43.0327 88.3581 42.8428 88.6961 42.5048C89.0342 42.1668 89.2241 41.7084 89.2241 41.2304C89.2241 40.7525 89.0342 40.2941 88.6961 39.9561C88.3581 39.6181 87.8996 39.4282 87.4215 39.4282Z" fill="#00909A"/>
<path d="M136.362 28.0439C144.107 28.0439 150.387 21.766 150.387 14.0219C150.387 6.27783 144.107 0 136.362 0C128.616 0 122.336 6.27783 122.336 14.0219C122.336 21.766 128.616 28.0439 136.362 28.0439Z" fill="#00909A"/>
<path d="M134.448 21.3199C134.206 21.3199 133.967 21.2635 133.75 21.1552C133.534 21.0469 133.345 20.8896 133.2 20.6959L129.374 15.5953C129.25 15.4314 129.16 15.2449 129.109 15.0462C129.057 14.8475 129.046 14.6407 129.074 14.4375C129.103 14.2344 129.172 14.0389 129.276 13.8623C129.381 13.6856 129.519 13.5314 129.683 13.4082C129.847 13.2851 130.034 13.1956 130.233 13.1449C130.432 13.0941 130.639 13.083 130.842 13.1123C131.045 13.1416 131.24 13.2107 131.417 13.3156C131.593 13.4205 131.747 13.5592 131.87 13.7237L134.373 17.0604L140.802 7.41869C141.032 7.07449 141.389 6.83555 141.795 6.75442C142.2 6.67329 142.622 6.75662 142.966 6.98609C143.31 7.21556 143.549 7.57236 143.63 7.97801C143.711 8.38365 143.628 8.80491 143.399 9.14911L135.746 20.6253C135.608 20.8329 135.421 21.0042 135.203 21.125C134.985 21.2457 134.741 21.3124 134.491 21.3194C134.477 21.3196 134.462 21.3199 134.448 21.3199Z" fill="white"/>
</g>
<defs>
<clipPath id="clip0_242_1627">
<rect width="248" height="217" fill="white"/>
</clipPath>
</defs>
</svg>
