<svg width="53" height="53" viewBox="0 0 53 53" fill="none" xmlns="http://www.w3.org/2000/svg">
<g clip-path="url(#clip0_1805_2194)">
<path d="M40.5777 20.41C40.5107 18.8901 40.2649 17.8452 39.9128 16.9397C39.5496 15.9786 38.9908 15.1182 38.2587 14.4029C37.5434 13.6764 36.6772 13.1119 35.7272 12.7544C34.8166 12.4023 33.7771 12.1565 32.2572 12.0895C30.726 12.0168 30.2398 12 26.3562 12C22.4725 12 21.9864 12.0168 20.4608 12.0838C18.9409 12.1508 17.896 12.3968 16.9907 12.7487C16.0294 13.1119 15.1689 13.6707 14.4536 14.4029C13.7272 15.1182 13.1629 15.9843 12.8052 16.9343C12.4531 17.8452 12.2073 18.8844 12.1403 20.4043C12.0676 21.9356 12.0508 22.4217 12.0508 26.3054C12.0508 30.1891 12.0676 30.6752 12.1346 32.2007C12.2016 33.7206 12.4476 34.7656 12.7997 35.671C13.1629 36.6321 13.7272 37.4926 14.4536 38.2079C15.1689 38.9343 16.0351 39.4988 16.9851 39.8564C17.896 40.2084 18.9352 40.4542 20.4553 40.5212C21.9807 40.5885 22.467 40.6051 26.3507 40.6051C30.2344 40.6051 30.7205 40.5885 32.2461 40.5212C33.766 40.4542 34.8109 40.2084 35.7161 39.8564C37.6385 39.1131 39.1584 37.5932 39.9017 35.671C40.2535 34.7601 40.4996 33.7206 40.5666 32.2007C40.6336 30.6752 40.6504 30.1891 40.6504 26.3054C40.6504 22.4217 40.6447 21.9356 40.5777 20.41ZM38.0017 32.089C37.9402 33.486 37.7055 34.2404 37.51 34.7433C37.0293 35.9895 36.0403 36.9785 34.7941 37.4592C34.2912 37.6548 33.5313 37.8894 32.1398 37.9507C30.631 38.018 30.1785 38.0346 26.3618 38.0346C22.5452 38.0346 22.087 38.018 20.5837 37.9507C19.1867 37.8894 18.4323 37.6548 17.9294 37.4592C17.3092 37.23 16.7447 36.8668 16.2866 36.3918C15.8116 35.9279 15.4484 35.3691 15.2192 34.749C15.0236 34.2461 14.7889 33.486 14.7276 32.0947C14.6603 30.5859 14.6438 30.1332 14.6438 26.3165C14.6438 22.4998 14.6603 22.0417 14.7276 20.5386C14.7889 19.1416 15.0236 18.3872 15.2192 17.8842C15.4484 17.2639 15.8116 16.6996 16.2922 16.2412C16.7559 15.7662 17.3147 15.403 17.935 15.174C18.4379 14.9785 19.198 14.7438 20.5893 14.6823C22.0981 14.6152 22.5508 14.5984 26.3673 14.5984C30.1896 14.5984 30.6421 14.6152 32.1454 14.6823C33.5424 14.7438 34.2968 14.9785 34.7998 15.174C35.4199 15.403 35.9844 15.7662 36.4426 16.2412C36.9175 16.7051 37.2808 17.2639 37.51 17.8842C37.7055 18.3872 37.9402 19.147 38.0017 20.5386C38.0688 22.0473 38.0856 22.4998 38.0856 26.3165C38.0856 30.1332 38.0688 30.5802 38.0017 32.089Z" fill="white"/>
<path d="M26.3551 18.957C22.2983 18.957 19.0068 22.2483 19.0068 26.3053C19.0068 30.3623 22.2983 33.6536 26.3551 33.6536C30.4121 33.6536 33.7034 30.3623 33.7034 26.3053C33.7034 22.2483 30.4121 18.957 26.3551 18.957ZM26.3551 31.0719C23.7233 31.0719 21.5885 28.9374 21.5885 26.3053C21.5885 23.6732 23.7233 21.5387 26.3551 21.5387C28.9872 21.5387 31.1217 23.6732 31.1217 26.3053C31.1217 28.9374 28.9872 31.0719 26.3551 31.0719Z" fill="white"/>
<path d="M35.7105 18.6667C35.7105 19.614 34.9423 20.3821 33.9948 20.3821C33.0474 20.3821 32.2793 19.614 32.2793 18.6667C32.2793 17.7191 33.0474 16.9512 33.9948 16.9512C34.9423 16.9512 35.7105 17.7191 35.7105 18.6667Z" fill="white"/>
</g>
<defs>
<clipPath id="clip0_1805_2194">
<rect width="28.6052" height="28.6052" fill="white" transform="translate(12 12)"/>
</clipPath>
</defs>
</svg>
