<svg width="53" height="53" viewBox="0 0 53 53" fill="none" xmlns="http://www.w3.org/2000/svg">
<g clip-path="url(#clip0_1805_2200)">
<path d="M42.7133 16.8372C42.4815 16.6803 42.1754 16.6883 41.9525 16.8576C41.7267 17.0286 41.3603 17.1756 40.9438 17.2961C42.0841 15.9648 42.1078 15.0748 42.0943 14.8653C42.079 14.6278 41.9355 14.4173 41.7203 14.3159C41.5041 14.2151 41.2509 14.239 41.0586 14.3787C39.6903 15.3729 38.328 15.5895 37.5091 15.6137C36.2381 14.4048 34.5901 13.7422 32.8379 13.7422C29.071 13.7422 26.0062 16.8474 26.0062 20.6641C26.0062 20.9731 26.0266 21.2815 26.0668 21.5873C19.636 21.4779 14.4166 15.3223 14.3627 15.2575C14.2262 15.0939 14.019 15.0049 13.8046 15.0254C13.5923 15.0439 13.4019 15.1651 13.2954 15.3497C11.4826 18.4948 12.59 21.27 13.702 22.9326C13.5871 22.8644 13.4931 22.8016 13.4287 22.7541C13.2323 22.608 12.9701 22.5838 12.7505 22.6919C12.5304 22.8003 12.3898 23.0222 12.3856 23.2674C12.3365 26.2834 13.7459 28.0481 15.1153 29.0481C14.967 29.0685 14.828 29.1393 14.7236 29.2528C14.5668 29.4231 14.5116 29.6638 14.5792 29.8854C15.5288 32.9939 17.8318 34.0949 19.3525 34.4846C16.2763 36.8057 11.8177 36.0481 11.7683 36.0388C11.4726 35.9869 11.1768 36.1427 11.0553 36.4189C10.9341 36.6947 11.017 37.0181 11.2568 37.2008C14.5358 39.7034 18.4575 40.2579 21.29 40.2579C23.432 40.2579 24.9508 39.9406 25.0968 39.909C39.3854 36.5228 39.8383 23.4676 39.809 21.2427C42.4895 18.7472 42.911 17.7893 42.9767 17.5511C43.0507 17.2814 42.9448 16.9944 42.7133 16.8372ZM38.7052 20.4846C38.5596 20.6185 38.4827 20.8117 38.4961 21.0094C38.4983 21.0445 38.7171 24.5831 37.1402 28.5261C35.0334 33.7943 30.88 37.1964 24.8085 38.6352C24.7435 38.6489 19.127 39.8121 14.1965 37.4671C16.3043 37.3787 19.2233 36.7851 21.2773 34.4792C21.4488 34.2869 21.4896 33.9897 21.3841 33.7547C21.2785 33.5203 21.0441 33.3478 20.7871 33.3478C20.7859 33.3478 20.7846 33.3478 20.7827 33.3478C20.6102 33.3478 17.6366 33.3255 16.2119 30.4537C16.7881 30.4786 17.4769 30.4446 18.032 30.1889C18.2878 30.0709 18.4389 29.8076 18.4073 29.528C18.3758 29.2483 18.1685 29.0231 17.893 28.965C17.7332 28.9312 14.2899 28.1628 13.759 24.4217C14.288 24.6421 14.9475 24.8128 15.6034 24.7145C15.8553 24.6769 16.0616 24.4958 16.133 24.2512C16.2041 24.0069 16.1263 23.7431 15.934 23.5756C15.7851 23.4462 12.5386 20.5586 14.0252 16.8273C15.7851 18.6606 20.804 23.2253 26.8898 22.8764C27.084 22.8653 27.2632 22.7677 27.3785 22.6108C27.4937 22.4539 27.533 22.254 27.4854 22.0653C27.3706 21.6081 27.3123 21.1368 27.3123 20.6642C27.3123 17.5676 29.7909 15.0484 32.8378 15.0484C34.328 15.0484 35.7255 15.6431 36.7735 16.7231C36.8936 16.8472 37.0582 16.9182 37.2311 16.9215C37.8347 16.9272 38.8286 16.8622 39.9518 16.4444C39.6168 16.8366 39.1485 17.2958 38.4935 17.8102C38.2671 17.9881 38.1839 18.2936 38.2888 18.5618C38.394 18.8306 38.6673 19.0006 38.9491 18.9748C39.0811 18.9643 39.7211 18.9078 40.4711 18.7557C40.0414 19.2126 39.4684 19.7828 38.7052 20.4846Z" fill="white"/>
</g>
<defs>
<clipPath id="clip0_1805_2200">
<rect width="32" height="32" fill="white" transform="translate(11 11)"/>
</clipPath>
</defs>
</svg>
